solid OpenSCAD_Model
  facet normal -0.927184 -0.374607 0
    outer loop
      vertex -59.4803 63.5176 0
      vertex -57.6073 58.8816 0
      vertex -59.4803 63.5176 5
    endloop
  endfacet
  facet normal -0.927184 -0.374607 0
    outer loop
      vertex -59.4803 63.5176 5
      vertex -57.6073 58.8816 0
      vertex -57.6073 58.8816 5
    endloop
  endfacet
  facet normal 0 0 -1
    outer loop
      vertex -59.4803 63.5176 0
      vertex -9.89109 83.5529 0
      vertex -57.6073 58.8816 0
    endloop
  endfacet
  facet normal 0 0 -1
    outer loop
      vertex -9.51056 87.943 0
      vertex -9.89109 83.5529 0
      vertex -9.94522 85.8981 0
    endloop
  endfacet
  facet normal 0 0 -1
    outer loop
      vertex -9.89109 83.5529 0
      vertex -9.94522 83.8075 0
      vertex -9.94522 85.8981 0
    endloop
  endfacet
  facet normal 0 0 -1
    outer loop
      vertex -8.66025 89.8528 0
      vertex -9.89109 83.5529 0
      vertex -9.51056 87.943 0
    endloop
  endfacet
  facet normal 0 0 -1
    outer loop
      vertex -7.43145 91.5441 0
      vertex -9.89109 83.5529 0
      vertex -8.66025 89.8528 0
    endloop
  endfacet
  facet normal 0 0 -1
    outer loop
      vertex -5.87785 92.943 0
      vertex -9.89109 83.5529 0
      vertex -7.43145 91.5441 0
    endloop
  endfacet
  facet normal 0 0 -1
    outer loop
      vertex -5 93.4498 0
      vertex -9.89109 83.5529 0
      vertex -5.87785 92.943 0
    endloop
  endfacet
  facet normal 0 0 -1
    outer loop
      vertex -2.35114 88.0889 0
      vertex -9.89109 83.5529 0
      vertex 5 93.4498 0
    endloop
  endfacet
  facet normal 0 0 -1
    outer loop
      vertex -1.80194 134.868 0
      vertex -5 93.4498 0
      vertex -5 140 0
    endloop
  endfacet
  facet normal 0 0 -1
    outer loop
      vertex -1.80194 104.868 0
      vertex -5 93.4498 0
      vertex 5 140 0
    endloop
  endfacet
  facet normal 0 0 -1
    outer loop
      vertex -9.89109 83.5529 0
      vertex -5 93.4498 0
      vertex 5 93.4498 0
    endloop
  endfacet
  facet normal 0 0 -1
    outer loop
      vertex 2.35114 88.0889 0
      vertex 7.43145 91.5441 0
      vertex 8.66025 89.8528 0
    endloop
  endfacet
  facet normal 0 0 -1
    outer loop
      vertex 3.97809 84.4347 0
      vertex 9.51056 87.943 0
      vertex 9.94522 85.8981 0
    endloop
  endfacet
  facet normal 0 0 -1
    outer loop
      vertex 2.97258 82.1763 0
      vertex 9.94522 85.8981 0
      vertex 9.94522 83.8075 0
    endloop
  endfacet
  facet normal 0 0 -1
    outer loop
      vertex -7.98889 78.9288 0
      vertex -1.62695 81.1986 0
      vertex -7.43145 78.1615 0
    endloop
  endfacet
  facet normal 0 0 -1
    outer loop
      vertex 7.98889 78.9288 0
      vertex 9.89109 83.5529 0
      vertex 59.4803 63.5176 0
    endloop
  endfacet
  facet normal 0 0 -1
    outer loop
      vertex 57.5572 58.9019 0
      vertex 59.4803 63.5176 0
      vertex 57.6073 58.8816 0
    endloop
  endfacet
  facet normal 0 0 -1
    outer loop
      vertex 51.1041 59.9277 0
      vertex 59.4803 63.5176 0
      vertex 57.5572 58.9019 0
    endloop
  endfacet
  facet normal 0 0 -1
    outer loop
      vertex 42.4264 47.0053 0
      vertex 46.9233 42.6029 0
      vertex 45.4202 40.991 0
    endloop
  endfacet
  facet normal 0 0 -1
    outer loop
      vertex 42.4264 47.0053 0
      vertex 49.7562 45.979 0
      vertex 48.3692 44.2662 0
    endloop
  endfacet
  facet normal 0 0 -1
    outer loop
      vertex 49.2409 56.4236 0
      vertex 56.7512 57.1734 0
      vertex 55.7506 55.2097 0
    endloop
  endfacet
  facet normal 0 0 -1
    outer loop
      vertex 48.2187 54.7224 0
      vertex 55.7506 55.2097 0
      vertex 54.6821 53.2821 0
    endloop
  endfacet
  facet normal 0 0 -1
    outer loop
      vertex 47.1378 53.0579 0
      vertex 54.6821 53.2821 0
      vertex 53.547 51.3929 0
    endloop
  endfacet
  facet normal 0 0 -1
    outer loop
      vertex 45.9995 51.4322 0
      vertex 53.547 51.3929 0
      vertex 52.3467 49.5445 0
    endloop
  endfacet
  facet normal 0 0 -1
    outer loop
      vertex 44.8051 49.8472 0
      vertex 52.3467 49.5445 0
      vertex 51.0825 47.7392 0
    endloop
  endfacet
  facet normal 0 0 -1
    outer loop
      vertex 42.4264 47.0053 0
      vertex 51.0825 47.7392 0
      vertex 49.7562 45.979 0
    endloop
  endfacet
  facet normal 0 0 -1
    outer loop
      vertex -57.5572 58.9019 0
      vertex -48.2187 54.7224 0
      vertex -47.1378 53.0579 0
    endloop
  endfacet
  facet normal 0 0 -1
    outer loop
      vertex 43.5561 48.3049 0
      vertex 51.0825 47.7392 0
      vertex 42.4264 47.0053 0
    endloop
  endfacet
  facet normal 0 0 -1
    outer loop
      vertex 44.8051 49.8472 0
      vertex 51.0825 47.7392 0
      vertex 43.5561 48.3049 0
    endloop
  endfacet
  facet normal 0 0 -1
    outer loop
      vertex -57.5572 58.9019 0
      vertex -49.2409 56.4236 0
      vertex -48.2187 54.7224 0
    endloop
  endfacet
  facet normal 0 0 -1
    outer loop
      vertex 45.9995 51.4322 0
      vertex 52.3467 49.5445 0
      vertex 44.8051 49.8472 0
    endloop
  endfacet
  facet normal 0 0 -1
    outer loop
      vertex 47.1378 53.0579 0
      vertex 53.547 51.3929 0
      vertex 45.9995 51.4322 0
    endloop
  endfacet
  facet normal 0 0 -1
    outer loop
      vertex -57.5572 58.9019 0
      vertex -47.1378 53.0579 0
      vertex -45.9995 51.4322 0
    endloop
  endfacet
  facet normal 0 0 -1
    outer loop
      vertex 48.2187 54.7224 0
      vertex 54.6821 53.2821 0
      vertex 47.1378 53.0579 0
    endloop
  endfacet
  facet normal 0 0 -1
    outer loop
      vertex -57.5572 58.9019 0
      vertex -45.9995 51.4322 0
      vertex -44.8051 49.8472 0
    endloop
  endfacet
  facet normal 0 0 -1
    outer loop
      vertex 49.2409 56.4236 0
      vertex 55.7506 55.2097 0
      vertex 48.2187 54.7224 0
    endloop
  endfacet
  facet normal 0 0 -1
    outer loop
      vertex -57.5572 58.9019 0
      vertex -44.8051 49.8472 0
      vertex -43.5561 48.3049 0
    endloop
  endfacet
  facet normal 0 0 -1
    outer loop
      vertex 50.2031 58.1594 0
      vertex 56.7512 57.1734 0
      vertex 49.2409 56.4236 0
    endloop
  endfacet
  facet normal 0 0 -1
    outer loop
      vertex 42.4264 47.0053 0
      vertex 48.3692 44.2662 0
      vertex 46.9233 42.6029 0
    endloop
  endfacet
  facet normal 0 0 -1
    outer loop
      vertex 51.1041 59.9277 0
      vertex 57.5572 58.9019 0
      vertex 50.2031 58.1594 0
    endloop
  endfacet
  facet normal 0 0 -1
    outer loop
      vertex 51.7246 61.2584 0
      vertex 59.4803 63.5176 0
      vertex 51.1041 59.9277 0
    endloop
  endfacet
  facet normal 0 0 -1
    outer loop
      vertex 7.98889 78.9288 0
      vertex 59.4803 63.5176 0
      vertex 51.7246 61.2584 0
    endloop
  endfacet
  facet normal 0 0 -1
    outer loop
      vertex -57.5572 58.9019 0
      vertex -43.5561 48.3049 0
      vertex -42.2541 46.8071 0
    endloop
  endfacet
  facet normal 0 0 -1
    outer loop
      vertex -4.06737 75.7174 0
      vertex 9.89109 83.5529 0
      vertex 7.98889 78.9288 0
    endloop
  endfacet
  facet normal 0 0 -1
    outer loop
      vertex -6.12323e-16 74.8528 0
      vertex 4.06737 75.7174 0
      vertex 2.07912 75.0713 0
    endloop
  endfacet
  facet normal 0 0 -1
    outer loop
      vertex -7.43145 78.1615 0
      vertex 9.89109 83.5529 0
      vertex -5.87785 76.7626 0
    endloop
  endfacet
  facet normal 0 0 -1
    outer loop
      vertex -2.07912 75.0713 0
      vertex 7.43145 78.1615 0
      vertex 5.87785 76.7626 0
    endloop
  endfacet
  facet normal 0 0 -1
    outer loop
      vertex -6.12323e-16 74.8528 0
      vertex 5.87785 76.7626 0
      vertex 4.06737 75.7174 0
    endloop
  endfacet
  facet normal 0 0 -1
    outer loop
      vertex -4.06737 75.7174 0
      vertex 7.43145 78.1615 0
      vertex -2.07912 75.0713 0
    endloop
  endfacet
  facet normal 0 0 -1
    outer loop
      vertex -2.07912 75.0713 0
      vertex 5.87785 76.7626 0
      vertex -6.12323e-16 74.8528 0
    endloop
  endfacet
  facet normal 0 0 -1
    outer loop
      vertex -4.06737 75.7174 0
      vertex 7.98889 78.9288 0
      vertex 7.43145 78.1615 0
    endloop
  endfacet
  facet normal 0 0 -1
    outer loop
      vertex -5.87785 76.7626 0
      vertex 9.89109 83.5529 0
      vertex -4.06737 75.7174 0
    endloop
  endfacet
  facet normal 0 0 -1
    outer loop
      vertex -7.43145 78.1615 0
      vertex 9.94522 83.8075 0
      vertex 9.89109 83.5529 0
    endloop
  endfacet
  facet normal 0 0 -1
    outer loop
      vertex -0.831647 80.9402 0
      vertex -7.43145 78.1615 0
      vertex -1.62695 81.1986 0
    endloop
  endfacet
  facet normal 0 0 -1
    outer loop
      vertex -3.97809 85.2709 0
      vertex -57.6073 58.8816 0
      vertex -3.80423 86.0889 0
    endloop
  endfacet
  facet normal 0 0 -1
    outer loop
      vertex -2.97258 82.1763 0
      vertex -7.98889 78.9288 0
      vertex -51.7246 61.2584 0
    endloop
  endfacet
  facet normal 0 0 -1
    outer loop
      vertex -51.1041 59.9277 0
      vertex -57.5572 58.9019 0
      vertex -51.7246 61.2584 0
    endloop
  endfacet
  facet normal 0 0 -1
    outer loop
      vertex -57.5572 58.9019 0
      vertex -51.1041 59.9277 0
      vertex -50.2031 58.1594 0
    endloop
  endfacet
  facet normal 0 0 -1
    outer loop
      vertex 3.80423 86.0889 0
      vertex 9.51056 87.943 0
      vertex 3.97809 85.2709 0
    endloop
  endfacet
  facet normal 0 0 -1
    outer loop
      vertex 0.831647 88.7654 0
      vertex 7.43145 91.5441 0
      vertex 1.62695 88.507 0
    endloop
  endfacet
  facet normal 0 0 -1
    outer loop
      vertex -57.6073 58.8816 0
      vertex -3.97809 85.2709 0
      vertex -3.97809 84.4347 0
    endloop
  endfacet
  facet normal 0 0 -1
    outer loop
      vertex -2.97258 82.1763 0
      vertex -57.5572 58.9019 0
      vertex -57.6073 58.8816 0
    endloop
  endfacet
  facet normal 0 0 -1
    outer loop
      vertex 2.97258 87.5293 0
      vertex 8.66025 89.8528 0
      vertex 3.4641 86.8528 0
    endloop
  endfacet
  facet normal 0 0 -1
    outer loop
      vertex -2.97258 82.1763 0
      vertex -51.7246 61.2584 0
      vertex -57.5572 58.9019 0
    endloop
  endfacet
  facet normal 0 0 -1
    outer loop
      vertex -3.80423 83.6167 0
      vertex -3.4641 82.8528 0
      vertex -57.6073 58.8816 0
    endloop
  endfacet
  facet normal 0 0 -1
    outer loop
      vertex -2.35114 81.6167 0
      vertex -7.98889 78.9288 0
      vertex -2.97258 82.1763 0
    endloop
  endfacet
  facet normal 0 0 -1
    outer loop
      vertex -1.62695 81.1986 0
      vertex -7.98889 78.9288 0
      vertex -2.35114 81.6167 0
    endloop
  endfacet
  facet normal 0 0 -1
    outer loop
      vertex 2.35114 81.6167 0
      vertex 9.94522 83.8075 0
      vertex 1.62695 81.1986 0
    endloop
  endfacet
  facet normal 0 0 -1
    outer loop
      vertex -7.43145 78.1615 0
      vertex -0.831647 80.9402 0
      vertex -2.44929e-16 80.8528 0
    endloop
  endfacet
  facet normal 0 0 -1
    outer loop
      vertex -7.43145 78.1615 0
      vertex -2.44929e-16 80.8528 0
      vertex 0.831647 80.9402 0
    endloop
  endfacet
  facet normal 0 0 -1
    outer loop
      vertex -7.43145 78.1615 0
      vertex 0.831647 80.9402 0
      vertex 9.94522 83.8075 0
    endloop
  endfacet
  facet normal 0 0 -1
    outer loop
      vertex 0.831647 80.9402 0
      vertex 1.62695 81.1986 0
      vertex 9.94522 83.8075 0
    endloop
  endfacet
  facet normal 0 0 -1
    outer loop
      vertex 2.97258 82.1763 0
      vertex 9.94522 83.8075 0
      vertex 2.35114 81.6167 0
    endloop
  endfacet
  facet normal 0 0 -1
    outer loop
      vertex 3.4641 82.8528 0
      vertex 9.94522 85.8981 0
      vertex 2.97258 82.1763 0
    endloop
  endfacet
  facet normal 0 0 -1
    outer loop
      vertex 3.80423 83.6167 0
      vertex 9.94522 85.8981 0
      vertex 3.4641 82.8528 0
    endloop
  endfacet
  facet normal 0 0 -1
    outer loop
      vertex 3.97809 85.2709 0
      vertex 9.51056 87.943 0
      vertex 3.97809 84.4347 0
    endloop
  endfacet
  facet normal 0 0 -1
    outer loop
      vertex 3.97809 84.4347 0
      vertex 9.94522 85.8981 0
      vertex 3.80423 83.6167 0
    endloop
  endfacet
  facet normal 0 0 -1
    outer loop
      vertex 8.66025 89.8528 0
      vertex 9.51056 87.943 0
      vertex 3.80423 86.0889 0
    endloop
  endfacet
  facet normal 0 0 -1
    outer loop
      vertex 8.66025 89.8528 0
      vertex 3.80423 86.0889 0
      vertex 3.4641 86.8528 0
    endloop
  endfacet
  facet normal 0 0 -1
    outer loop
      vertex 2.35114 88.0889 0
      vertex 8.66025 89.8528 0
      vertex 2.97258 87.5293 0
    endloop
  endfacet
  facet normal 0 0 -1
    outer loop
      vertex 1.24698 102.436 0
      vertex 5 93.4498 0
      vertex -0.445042 102.05 0
    endloop
  endfacet
  facet normal 0 0 -1
    outer loop
      vertex 1.62695 88.507 0
      vertex 7.43145 91.5441 0
      vertex 2.35114 88.0889 0
    endloop
  endfacet
  facet normal 0 0 -1
    outer loop
      vertex -3.80423 83.6167 0
      vertex -57.6073 58.8816 0
      vertex -3.97809 84.4347 0
    endloop
  endfacet
  facet normal 0 0 -1
    outer loop
      vertex -1.62695 88.507 0
      vertex 5.87785 92.943 0
      vertex -0.831647 88.7654 0
    endloop
  endfacet
  facet normal 0 0 -1
    outer loop
      vertex 7.43145 91.5441 0
      vertex 0.831647 88.7654 0
      vertex 5.87785 92.943 0
    endloop
  endfacet
  facet normal 0 0 -1
    outer loop
      vertex -3.80423 86.0889 0
      vertex -9.89109 83.5529 0
      vertex -3.4641 86.8528 0
    endloop
  endfacet
  facet normal 0 0 -1
    outer loop
      vertex 0.831647 88.7654 0
      vertex 2.44929e-16 88.8528 0
      vertex 5.87785 92.943 0
    endloop
  endfacet
  facet normal 0 0 -1
    outer loop
      vertex -3.4641 86.8528 0
      vertex -9.89109 83.5529 0
      vertex -2.97258 87.5293 0
    endloop
  endfacet
  facet normal 0 0 -1
    outer loop
      vertex 2.44929e-16 88.8528 0
      vertex -0.831647 88.7654 0
      vertex 5.87785 92.943 0
    endloop
  endfacet
  facet normal 0 0 -1
    outer loop
      vertex -2.97258 87.5293 0
      vertex -9.89109 83.5529 0
      vertex -2.35114 88.0889 0
    endloop
  endfacet
  facet normal 0 0 -1
    outer loop
      vertex 5.87785 92.943 0
      vertex -1.62695 88.507 0
      vertex 5 93.4498 0
    endloop
  endfacet
  facet normal 0 0 -1
    outer loop
      vertex -1.62695 88.507 0
      vertex -2.35114 88.0889 0
      vertex 5 93.4498 0
    endloop
  endfacet
  facet normal 0 0 -1
    outer loop
      vertex -57.6073 58.8816 0
      vertex -9.89109 83.5529 0
      vertex -3.80423 86.0889 0
    endloop
  endfacet
  facet normal 0 0 -1
    outer loop
      vertex -2.97258 82.1763 0
      vertex -57.6073 58.8816 0
      vertex -3.4641 82.8528 0
    endloop
  endfacet
  facet normal 0 0 -1
    outer loop
      vertex -1.80194 103.132 0
      vertex -5 93.4498 0
      vertex -1.80194 104.868 0
    endloop
  endfacet
  facet normal 0 0 -1
    outer loop
      vertex -0.445042 105.95 0
      vertex -1.80194 104.868 0
      vertex 5 140 0
    endloop
  endfacet
  facet normal 0 0 -1
    outer loop
      vertex 5 93.4498 0
      vertex -5 93.4498 0
      vertex -1.80194 103.132 0
    endloop
  endfacet
  facet normal 0 0 -1
    outer loop
      vertex 5 93.4498 0
      vertex -1.80194 103.132 0
      vertex -0.445042 102.05 0
    endloop
  endfacet
  facet normal 0 0 -1
    outer loop
      vertex 1.24698 105.564 0
      vertex 5 140 0
      vertex 2 104 0
    endloop
  endfacet
  facet normal 0 0 -1
    outer loop
      vertex 5 93.4498 0
      vertex 1.24698 102.436 0
      vertex 2 104 0
    endloop
  endfacet
  facet normal 0 0 -1
    outer loop
      vertex 5 93.4498 0
      vertex 2 104 0
      vertex 5 140 0
    endloop
  endfacet
  facet normal 0 0 -1
    outer loop
      vertex 1.24698 135.564 0
      vertex 5 140 0
      vertex 2 134 0
    endloop
  endfacet
  facet normal 0 0 -1
    outer loop
      vertex 1.24698 105.564 0
      vertex -0.445042 105.95 0
      vertex 5 140 0
    endloop
  endfacet
  facet normal 0 0 -1
    outer loop
      vertex -1.80194 133.132 0
      vertex -5 93.4498 0
      vertex -1.80194 134.868 0
    endloop
  endfacet
  facet normal 0 0 -1
    outer loop
      vertex -0.445042 135.95 0
      vertex -1.80194 134.868 0
      vertex -5 140 0
    endloop
  endfacet
  facet normal 0 0 -1
    outer loop
      vertex -0.445042 132.05 0
      vertex -5 93.4498 0
      vertex -1.80194 133.132 0
    endloop
  endfacet
  facet normal 0 0 -1
    outer loop
      vertex 1.24698 132.436 0
      vertex -5 93.4498 0
      vertex -0.445042 132.05 0
    endloop
  endfacet
  facet normal 0 0 -1
    outer loop
      vertex 5 140 0
      vertex -5 93.4498 0
      vertex 1.24698 132.436 0
    endloop
  endfacet
  facet normal 0 0 -1
    outer loop
      vertex 5 140 0
      vertex 1.24698 132.436 0
      vertex 2 134 0
    endloop
  endfacet
  facet normal 0 0 -1
    outer loop
      vertex -0.445042 135.95 0
      vertex 5 140 0
      vertex 1.24698 135.564 0
    endloop
  endfacet
  facet normal 0 0 -1
    outer loop
      vertex 5 140 0
      vertex -0.445042 135.95 0
      vertex -5 140 0
    endloop
  endfacet
  facet normal 0 0 -1
    outer loop
      vertex -57.5572 58.9019 0
      vertex -42.2541 46.8071 0
      vertex -40.9006 45.3556 0
    endloop
  endfacet
  facet normal 0 0 -1
    outer loop
      vertex 56.7512 57.1734 0
      vertex 50.2031 58.1594 0
      vertex 57.5572 58.9019 0
    endloop
  endfacet
  facet normal 0 0 -1
    outer loop
      vertex 42.4264 47.0053 0
      vertex 45.4202 40.991 0
      vertex 43.8618 39.4326 0
    endloop
  endfacet
  facet normal 0 0 -1
    outer loop
      vertex 42.4264 47.0053 0
      vertex 43.8618 39.4326 0
      vertex 42.4264 38.0941 0
    endloop
  endfacet
  facet normal 0 0 -1
    outer loop
      vertex -57.5572 58.9019 0
      vertex -50.2031 58.1594 0
      vertex -49.2409 56.4236 0
    endloop
  endfacet
  facet normal 0 0 -1
    outer loop
      vertex -57.5572 58.9019 0
      vertex -40.9006 45.3556 0
      vertex -39.4972 43.9522 0
    endloop
  endfacet
  facet normal 0 0 -1
    outer loop
      vertex -57.5572 58.9019 0
      vertex -39.4972 43.9522 0
      vertex -38.0458 42.5987 0
    endloop
  endfacet
  facet normal 0 0 -1
    outer loop
      vertex -57.5572 58.9019 0
      vertex -38.0458 42.5987 0
      vertex -37.8475 42.4264 0
    endloop
  endfacet
  facet normal 0 0 -1
    outer loop
      vertex -57.5572 58.9019 0
      vertex -37.8475 42.4264 0
      vertex -46.7587 42.4264 0
    endloop
  endfacet
  facet normal 0 0 -1
    outer loop
      vertex -57.5572 58.9019 0
      vertex -46.7587 42.4264 0
      vertex -46.9233 42.6029 0
    endloop
  endfacet
  facet normal 0 0 -1
    outer loop
      vertex -57.5572 58.9019 0
      vertex -46.9233 42.6029 0
      vertex -48.3692 44.2662 0
    endloop
  endfacet
  facet normal 0 0 -1
    outer loop
      vertex -57.5572 58.9019 0
      vertex -48.3692 44.2662 0
      vertex -49.7562 45.979 0
    endloop
  endfacet
  facet normal 0 0 -1
    outer loop
      vertex -57.5572 58.9019 0
      vertex -49.7562 45.979 0
      vertex -51.0825 47.7392 0
    endloop
  endfacet
  facet normal 0 0 -1
    outer loop
      vertex -57.5572 58.9019 0
      vertex -51.0825 47.7392 0
      vertex -52.3467 49.5445 0
    endloop
  endfacet
  facet normal 0 0 -1
    outer loop
      vertex -57.5572 58.9019 0
      vertex -52.3467 49.5445 0
      vertex -53.547 51.3929 0
    endloop
  endfacet
  facet normal 0 0 -1
    outer loop
      vertex -57.5572 58.9019 0
      vertex -53.547 51.3929 0
      vertex -54.6821 53.2821 0
    endloop
  endfacet
  facet normal 0 0 -1
    outer loop
      vertex -57.5572 58.9019 0
      vertex -54.6821 53.2821 0
      vertex -55.7506 55.2097 0
    endloop
  endfacet
  facet normal 0 0 -1
    outer loop
      vertex -57.5572 58.9019 0
      vertex -55.7506 55.2097 0
      vertex -56.7512 57.1734 0
    endloop
  endfacet
  facet normal -0.374607 0.927184 0
    outer loop
      vertex -59.4803 63.5176 0
      vertex -59.4803 63.5176 5
      vertex -9.89109 83.5529 0
    endloop
  endfacet
  facet normal -0.374607 0.927184 0
    outer loop
      vertex -9.89109 83.5529 0
      vertex -59.4803 63.5176 5
      vertex -9.89109 83.5529 5
    endloop
  endfacet
  facet normal 0 0 1
    outer loop
      vertex -58.5438 61.1996 5
      vertex -59.4803 63.5176 5
      vertex -57.6073 58.8816 5
    endloop
  endfacet
  facet normal 0 0 1
    outer loop
      vertex -58.5438 61.1996 5
      vertex -52.7183 63.5532 5
      vertex -59.4803 63.5176 5
    endloop
  endfacet
  facet normal 0 0 1
    outer loop
      vertex -57.6826 59.1709 5
      vertex -58.5438 61.1996 5
      vertex -57.6073 58.8816 5
    endloop
  endfacet
  facet normal 0 0 1
    outer loop
      vertex -9.89109 83.5529 5
      vertex -59.4803 63.5176 5
      vertex -52.7183 63.5532 5
    endloop
  endfacet
  facet normal 0 0 1
    outer loop
      vertex -51.7246 61.2584 5
      vertex -9.89109 83.5529 5
      vertex -51.9428 61.7264 5
    endloop
  endfacet
  facet normal 0 0 1
    outer loop
      vertex -9.51056 81.7626 5
      vertex -9.89109 83.5529 5
      vertex -51.7246 61.2584 5
    endloop
  endfacet
  facet normal 0 0 1
    outer loop
      vertex -7.98889 78.9288 5
      vertex -8.66025 79.8528 5
      vertex -51.7246 61.2584 5
    endloop
  endfacet
  facet normal 0 0 1
    outer loop
      vertex -8.66025 79.8528 5
      vertex -9.51056 81.7626 5
      vertex -51.7246 61.2584 5
    endloop
  endfacet
  facet normal 0 0 1
    outer loop
      vertex -57.5572 58.9019 5
      vertex -57.6826 59.1709 5
      vertex -57.6073 58.8816 5
    endloop
  endfacet
  facet normal 0 0 1
    outer loop
      vertex -52.7183 63.5532 5
      vertex -51.9428 61.7264 5
      vertex -9.89109 83.5529 5
    endloop
  endfacet
  facet normal 0.374607 -0.927184 0
    outer loop
      vertex -57.6073 58.8816 5
      vertex -57.6073 58.8816 0
      vertex -57.5572 58.9019 0
    endloop
  endfacet
  facet normal 0.374607 -0.927184 0
    outer loop
      vertex -57.5572 58.9019 5
      vertex -57.6073 58.8816 5
      vertex -57.5572 58.9019 0
    endloop
  endfacet
  facet normal -0.906308 -0.422619 0
    outer loop
      vertex -56.7512 57.1734 0
      vertex -57.5572 58.9019 5
      vertex -57.5572 58.9019 0
    endloop
  endfacet
  facet normal -0.906308 -0.422619 0
    outer loop
      vertex -56.7512 57.1734 5
      vertex -57.5572 58.9019 5
      vertex -56.7512 57.1734 0
    endloop
  endfacet
  facet normal -0.906308 -0.422619 0
    outer loop
      vertex -57.6826 59.1709 5
      vertex -57.5572 58.9019 5
      vertex -56.7512 57.1734 5
    endloop
  endfacet
  facet normal -0.891007 -0.453991 0
    outer loop
      vertex -56.7512 57.1734 0
      vertex -55.7506 55.2097 0
      vertex -56.7512 57.1734 5
    endloop
  endfacet
  facet normal -0.891007 -0.453991 0
    outer loop
      vertex -56.7512 57.1734 5
      vertex -55.7506 55.2097 0
      vertex -55.7506 55.2097 5
    endloop
  endfacet
  facet normal -0.87462 -0.48481 0
    outer loop
      vertex -55.7506 55.2097 0
      vertex -54.6821 53.2821 0
      vertex -55.7506 55.2097 5
    endloop
  endfacet
  facet normal -0.87462 -0.48481 0
    outer loop
      vertex -55.7506 55.2097 5
      vertex -54.6821 53.2821 0
      vertex -54.6821 53.2821 5
    endloop
  endfacet
  facet normal -0.857167 -0.515038 0
    outer loop
      vertex -54.6821 53.2821 0
      vertex -53.547 51.3929 0
      vertex -54.6821 53.2821 5
    endloop
  endfacet
  facet normal -0.857167 -0.515038 0
    outer loop
      vertex -54.6821 53.2821 5
      vertex -53.547 51.3929 0
      vertex -53.547 51.3929 5
    endloop
  endfacet
  facet normal -0.838671 -0.544639 0
    outer loop
      vertex -53.547 51.3929 0
      vertex -52.3467 49.5445 0
      vertex -53.547 51.3929 5
    endloop
  endfacet
  facet normal -0.838671 -0.544639 0
    outer loop
      vertex -53.547 51.3929 5
      vertex -52.3467 49.5445 0
      vertex -52.3467 49.5445 5
    endloop
  endfacet
  facet normal -0.819152 -0.573576 0
    outer loop
      vertex -52.3467 49.5445 0
      vertex -51.0825 47.7392 0
      vertex -52.3467 49.5445 5
    endloop
  endfacet
  facet normal -0.819152 -0.573576 0
    outer loop
      vertex -52.3467 49.5445 5
      vertex -51.0825 47.7392 0
      vertex -51.0825 47.7392 5
    endloop
  endfacet
  facet normal -0.798635 -0.601815 0
    outer loop
      vertex -51.0825 47.7392 0
      vertex -49.7562 45.979 0
      vertex -51.0825 47.7392 5
    endloop
  endfacet
  facet normal -0.798635 -0.601815 0
    outer loop
      vertex -51.0825 47.7392 5
      vertex -49.7562 45.979 0
      vertex -49.7562 45.979 5
    endloop
  endfacet
  facet normal -0.777146 -0.62932 0
    outer loop
      vertex -49.7562 45.979 0
      vertex -48.3692 44.2662 0
      vertex -49.7562 45.979 5
    endloop
  endfacet
  facet normal -0.777146 -0.62932 0
    outer loop
      vertex -49.7562 45.979 5
      vertex -48.3692 44.2662 0
      vertex -48.3692 44.2662 5
    endloop
  endfacet
  facet normal -0.75471 -0.656059 0
    outer loop
      vertex -48.3692 44.2662 0
      vertex -46.9233 42.6029 0
      vertex -48.3692 44.2662 5
    endloop
  endfacet
  facet normal -0.75471 -0.656059 0
    outer loop
      vertex -48.3692 44.2662 5
      vertex -46.9233 42.6029 0
      vertex -46.9233 42.6029 5
    endloop
  endfacet
  facet normal -0.731354 -0.681998 0
    outer loop
      vertex -46.9233 42.6029 0
      vertex -46.7587 42.4264 0
      vertex -46.9233 42.6029 5
    endloop
  endfacet
  facet normal -0.731354 -0.681998 0
    outer loop
      vertex -46.9233 42.6029 5
      vertex -46.7587 42.4264 0
      vertex -46.7587 42.4264 5
    endloop
  endfacet
  facet normal 3.45446e-17 -1 0
    outer loop
      vertex -46.7587 42.4264 5
      vertex -46.7587 42.4264 0
      vertex -37.8475 42.4264 0
    endloop
  endfacet
  facet normal 3.45446e-17 -1 0
    outer loop
      vertex -37.8475 42.4264 5
      vertex -46.7587 42.4264 5
      vertex -37.8475 42.4264 0
    endloop
  endfacet
  facet normal 0.656059 0.75471 0
    outer loop
      vertex -37.8475 42.4264 5
      vertex -37.8475 42.4264 0
      vertex -38.0458 42.5987 5
    endloop
  endfacet
  facet normal 0.656059 0.75471 0
    outer loop
      vertex -38.0458 42.5987 5
      vertex -37.8475 42.4264 0
      vertex -38.0458 42.5987 0
    endloop
  endfacet
  facet normal 0.681998 0.731354 0
    outer loop
      vertex -38.0458 42.5987 5
      vertex -38.0458 42.5987 0
      vertex -39.4972 43.9522 5
    endloop
  endfacet
  facet normal 0.681998 0.731354 0
    outer loop
      vertex -39.4972 43.9522 5
      vertex -38.0458 42.5987 0
      vertex -39.4972 43.9522 0
    endloop
  endfacet
  facet normal 0.707107 0.707107 0
    outer loop
      vertex -40.9006 45.3556 5
      vertex -39.4972 43.9522 5
      vertex -39.4972 43.9522 0
    endloop
  endfacet
  facet normal 0.707107 0.707107 0
    outer loop
      vertex -40.9006 45.3556 0
      vertex -40.9006 45.3556 5
      vertex -39.4972 43.9522 0
    endloop
  endfacet
  facet normal 0.731354 0.681998 0
    outer loop
      vertex -42.2541 46.8071 5
      vertex -40.9006 45.3556 5
      vertex -40.9006 45.3556 0
    endloop
  endfacet
  facet normal 0.731354 0.681998 0
    outer loop
      vertex -42.2541 46.8071 0
      vertex -42.2541 46.8071 5
      vertex -40.9006 45.3556 0
    endloop
  endfacet
  facet normal 0.75471 0.656059 0
    outer loop
      vertex -43.5561 48.3049 5
      vertex -42.2541 46.8071 5
      vertex -42.2541 46.8071 0
    endloop
  endfacet
  facet normal 0.75471 0.656059 0
    outer loop
      vertex -43.5561 48.3049 0
      vertex -43.5561 48.3049 5
      vertex -42.2541 46.8071 0
    endloop
  endfacet
  facet normal 0.777146 0.62932 0
    outer loop
      vertex -44.8051 49.8472 5
      vertex -43.5561 48.3049 5
      vertex -43.5561 48.3049 0
    endloop
  endfacet
  facet normal 0.777146 0.62932 0
    outer loop
      vertex -44.8051 49.8472 0
      vertex -44.8051 49.8472 5
      vertex -43.5561 48.3049 0
    endloop
  endfacet
  facet normal 0.798635 0.601815 0
    outer loop
      vertex -45.9995 51.4322 5
      vertex -44.8051 49.8472 5
      vertex -44.8051 49.8472 0
    endloop
  endfacet
  facet normal 0.798635 0.601815 0
    outer loop
      vertex -45.9995 51.4322 0
      vertex -45.9995 51.4322 5
      vertex -44.8051 49.8472 0
    endloop
  endfacet
  facet normal 0.819152 0.573576 0
    outer loop
      vertex -47.1378 53.0579 5
      vertex -45.9995 51.4322 5
      vertex -45.9995 51.4322 0
    endloop
  endfacet
  facet normal 0.819152 0.573576 0
    outer loop
      vertex -47.1378 53.0579 0
      vertex -47.1378 53.0579 5
      vertex -45.9995 51.4322 0
    endloop
  endfacet
  facet normal 0.838671 0.544639 0
    outer loop
      vertex -48.2187 54.7224 5
      vertex -47.1378 53.0579 5
      vertex -47.1378 53.0579 0
    endloop
  endfacet
  facet normal 0.838671 0.544639 0
    outer loop
      vertex -48.2187 54.7224 0
      vertex -48.2187 54.7224 5
      vertex -47.1378 53.0579 0
    endloop
  endfacet
  facet normal 0.857167 0.515038 0
    outer loop
      vertex -49.2409 56.4236 5
      vertex -48.2187 54.7224 5
      vertex -48.2187 54.7224 0
    endloop
  endfacet
  facet normal 0.857167 0.515038 0
    outer loop
      vertex -49.2409 56.4236 0
      vertex -49.2409 56.4236 5
      vertex -48.2187 54.7224 0
    endloop
  endfacet
  facet normal 0.87462 0.48481 0
    outer loop
      vertex -50.2031 58.1594 5
      vertex -49.2409 56.4236 5
      vertex -49.2409 56.4236 0
    endloop
  endfacet
  facet normal 0.87462 0.48481 0
    outer loop
      vertex -50.2031 58.1594 0
      vertex -50.2031 58.1594 5
      vertex -49.2409 56.4236 0
    endloop
  endfacet
  facet normal 0.891007 0.45399 0
    outer loop
      vertex -51.1041 59.9277 5
      vertex -50.2031 58.1594 5
      vertex -50.2031 58.1594 0
    endloop
  endfacet
  facet normal 0.891007 0.45399 0
    outer loop
      vertex -51.1041 59.9277 0
      vertex -51.1041 59.9277 5
      vertex -50.2031 58.1594 0
    endloop
  endfacet
  facet normal 0.906308 0.422618 0
    outer loop
      vertex -51.7246 61.2584 5
      vertex -51.1041 59.9277 5
      vertex -51.1041 59.9277 0
    endloop
  endfacet
  facet normal 0.906308 0.422618 0
    outer loop
      vertex -51.9428 61.7264 5
      vertex -51.1041 59.9277 5
      vertex -51.7246 61.2584 5
    endloop
  endfacet
  facet normal 0.906308 0.422618 0
    outer loop
      vertex -51.7246 61.2584 0
      vertex -51.7246 61.2584 5
      vertex -51.1041 59.9277 0
    endloop
  endfacet
  facet normal 0.374607 -0.927184 0
    outer loop
      vertex -51.7246 61.2584 5
      vertex -51.7246 61.2584 0
      vertex -7.98889 78.9288 0
    endloop
  endfacet
  facet normal 0.374607 -0.927184 0
    outer loop
      vertex -7.98889 78.9288 5
      vertex -51.7246 61.2584 5
      vertex -7.98889 78.9288 0
    endloop
  endfacet
  facet normal -0.809017 -0.587785 0
    outer loop
      vertex -7.43145 78.1615 0
      vertex -7.98889 78.9288 5
      vertex -7.98889 78.9288 0
    endloop
  endfacet
  facet normal -0.809017 -0.587785 0
    outer loop
      vertex -7.43145 78.1615 5
      vertex -7.98889 78.9288 5
      vertex -7.43145 78.1615 0
    endloop
  endfacet
  facet normal -0.809017 -0.587785 0
    outer loop
      vertex -8.66025 79.8528 5
      vertex -7.98889 78.9288 5
      vertex -7.43145 78.1615 5
    endloop
  endfacet
  facet normal -0.669131 -0.743145 0
    outer loop
      vertex -7.43145 78.1615 5
      vertex -7.43145 78.1615 0
      vertex -5.87785 76.7626 0
    endloop
  endfacet
  facet normal -0.669131 -0.743145 0
    outer loop
      vertex -5.87785 76.7626 5
      vertex -7.43145 78.1615 5
      vertex -5.87785 76.7626 0
    endloop
  endfacet
  facet normal -0.5 -0.866025 0
    outer loop
      vertex -5.87785 76.7626 5
      vertex -5.87785 76.7626 0
      vertex -4.06737 75.7174 0
    endloop
  endfacet
  facet normal -0.5 -0.866025 0
    outer loop
      vertex -4.06737 75.7174 5
      vertex -5.87785 76.7626 5
      vertex -4.06737 75.7174 0
    endloop
  endfacet
  facet normal -0.309017 -0.951057 0
    outer loop
      vertex -4.06737 75.7174 5
      vertex -4.06737 75.7174 0
      vertex -2.07912 75.0713 0
    endloop
  endfacet
  facet normal -0.309017 -0.951057 0
    outer loop
      vertex -2.07912 75.0713 5
      vertex -4.06737 75.7174 5
      vertex -2.07912 75.0713 0
    endloop
  endfacet
  facet normal -0.104528 -0.994522 0
    outer loop
      vertex -2.07912 75.0713 5
      vertex -2.07912 75.0713 0
      vertex -6.12323e-16 74.8528 0
    endloop
  endfacet
  facet normal -0.104528 -0.994522 0
    outer loop
      vertex -6.12323e-16 74.8528 5
      vertex -2.07912 75.0713 5
      vertex -6.12323e-16 74.8528 0
    endloop
  endfacet
  facet normal 0.104528 -0.994522 0
    outer loop
      vertex -6.12323e-16 74.8528 5
      vertex -6.12323e-16 74.8528 0
      vertex 2.07912 75.0713 0
    endloop
  endfacet
  facet normal 0.104528 -0.994522 0
    outer loop
      vertex 2.07912 75.0713 5
      vertex -6.12323e-16 74.8528 5
      vertex 2.07912 75.0713 0
    endloop
  endfacet
  facet normal 0.309017 -0.951057 0
    outer loop
      vertex 2.07912 75.0713 5
      vertex 2.07912 75.0713 0
      vertex 4.06737 75.7174 0
    endloop
  endfacet
  facet normal 0.309017 -0.951057 0
    outer loop
      vertex 4.06737 75.7174 5
      vertex 2.07912 75.0713 5
      vertex 4.06737 75.7174 0
    endloop
  endfacet
  facet normal 0.5 -0.866025 0
    outer loop
      vertex 4.06737 75.7174 5
      vertex 4.06737 75.7174 0
      vertex 5.87785 76.7626 0
    endloop
  endfacet
  facet normal 0.5 -0.866025 0
    outer loop
      vertex 5.87785 76.7626 5
      vertex 4.06737 75.7174 5
      vertex 5.87785 76.7626 0
    endloop
  endfacet
  facet normal 0.669131 -0.743145 0
    outer loop
      vertex 5.87785 76.7626 5
      vertex 5.87785 76.7626 0
      vertex 7.43145 78.1615 0
    endloop
  endfacet
  facet normal 0.669131 -0.743145 0
    outer loop
      vertex 7.43145 78.1615 5
      vertex 5.87785 76.7626 5
      vertex 7.43145 78.1615 0
    endloop
  endfacet
  facet normal 0.809017 -0.587785 0
    outer loop
      vertex 7.43145 78.1615 5
      vertex 7.43145 78.1615 0
      vertex 7.98889 78.9288 0
    endloop
  endfacet
  facet normal 0.809017 -0.587785 0
    outer loop
      vertex 8.66025 79.8528 5
      vertex 7.43145 78.1615 5
      vertex 7.98889 78.9288 5
    endloop
  endfacet
  facet normal 0.809017 -0.587785 0
    outer loop
      vertex 7.98889 78.9288 5
      vertex 7.43145 78.1615 5
      vertex 7.98889 78.9288 0
    endloop
  endfacet
  facet normal -0.374607 -0.927184 0
    outer loop
      vertex 7.98889 78.9288 5
      vertex 7.98889 78.9288 0
      vertex 51.7246 61.2584 0
    endloop
  endfacet
  facet normal -0.374607 -0.927184 0
    outer loop
      vertex 51.7246 61.2584 5
      vertex 7.98889 78.9288 5
      vertex 51.7246 61.2584 0
    endloop
  endfacet
  facet normal -0.906308 0.422618 0
    outer loop
      vertex 51.1041 59.9277 5
      vertex 51.9428 61.7264 5
      vertex 51.7246 61.2584 5
    endloop
  endfacet
  facet normal -0.906308 0.422618 0
    outer loop
      vertex 51.1041 59.9277 5
      vertex 51.7246 61.2584 5
      vertex 51.7246 61.2584 0
    endloop
  endfacet
  facet normal -0.906308 0.422618 0
    outer loop
      vertex 51.1041 59.9277 5
      vertex 51.7246 61.2584 0
      vertex 51.1041 59.9277 0
    endloop
  endfacet
  facet normal -0.891007 0.45399 0
    outer loop
      vertex 51.1041 59.9277 5
      vertex 51.1041 59.9277 0
      vertex 50.2031 58.1594 5
    endloop
  endfacet
  facet normal -0.891007 0.45399 0
    outer loop
      vertex 50.2031 58.1594 5
      vertex 51.1041 59.9277 0
      vertex 50.2031 58.1594 0
    endloop
  endfacet
  facet normal -0.87462 0.48481 0
    outer loop
      vertex 50.2031 58.1594 5
      vertex 50.2031 58.1594 0
      vertex 49.2409 56.4236 5
    endloop
  endfacet
  facet normal -0.87462 0.48481 0
    outer loop
      vertex 49.2409 56.4236 5
      vertex 50.2031 58.1594 0
      vertex 49.2409 56.4236 0
    endloop
  endfacet
  facet normal -0.857167 0.515038 0
    outer loop
      vertex 49.2409 56.4236 5
      vertex 49.2409 56.4236 0
      vertex 48.2187 54.7224 5
    endloop
  endfacet
  facet normal -0.857167 0.515038 0
    outer loop
      vertex 48.2187 54.7224 5
      vertex 49.2409 56.4236 0
      vertex 48.2187 54.7224 0
    endloop
  endfacet
  facet normal -0.838671 0.544639 0
    outer loop
      vertex 48.2187 54.7224 5
      vertex 48.2187 54.7224 0
      vertex 47.1378 53.0579 5
    endloop
  endfacet
  facet normal -0.838671 0.544639 0
    outer loop
      vertex 47.1378 53.0579 5
      vertex 48.2187 54.7224 0
      vertex 47.1378 53.0579 0
    endloop
  endfacet
  facet normal -0.819152 0.573576 0
    outer loop
      vertex 47.1378 53.0579 5
      vertex 47.1378 53.0579 0
      vertex 45.9995 51.4322 5
    endloop
  endfacet
  facet normal -0.819152 0.573576 0
    outer loop
      vertex 45.9995 51.4322 5
      vertex 47.1378 53.0579 0
      vertex 45.9995 51.4322 0
    endloop
  endfacet
  facet normal -0.798635 0.601815 0
    outer loop
      vertex 45.9995 51.4322 5
      vertex 45.9995 51.4322 0
      vertex 44.8051 49.8472 5
    endloop
  endfacet
  facet normal -0.798635 0.601815 0
    outer loop
      vertex 44.8051 49.8472 5
      vertex 45.9995 51.4322 0
      vertex 44.8051 49.8472 0
    endloop
  endfacet
  facet normal -0.777146 0.62932 0
    outer loop
      vertex 44.8051 49.8472 5
      vertex 44.8051 49.8472 0
      vertex 43.5561 48.3049 5
    endloop
  endfacet
  facet normal -0.777146 0.62932 0
    outer loop
      vertex 43.5561 48.3049 5
      vertex 44.8051 49.8472 0
      vertex 43.5561 48.3049 0
    endloop
  endfacet
  facet normal -0.75471 0.656059 0
    outer loop
      vertex 43.5561 48.3049 5
      vertex 43.5561 48.3049 0
      vertex 42.4264 47.0053 5
    endloop
  endfacet
  facet normal -0.75471 0.656059 0
    outer loop
      vertex 42.4264 47.0053 5
      vertex 43.5561 48.3049 0
      vertex 42.4264 47.0053 0
    endloop
  endfacet
  facet normal -1 -9.57769e-17 0
    outer loop
      vertex 42.4264 47.0053 0
      vertex 42.4264 38.0941 0
      vertex 42.4264 47.0053 5
    endloop
  endfacet
  facet normal -1 -9.57769e-17 0
    outer loop
      vertex 42.4264 47.0053 5
      vertex 42.4264 38.0941 0
      vertex 42.4264 38.0941 5
    endloop
  endfacet
  facet normal 0.681998 -0.731354 0
    outer loop
      vertex 42.4264 38.0941 5
      vertex 42.4264 38.0941 0
      vertex 43.8618 39.4326 0
    endloop
  endfacet
  facet normal 0.681998 -0.731354 0
    outer loop
      vertex 43.8618 39.4326 5
      vertex 42.4264 38.0941 5
      vertex 43.8618 39.4326 0
    endloop
  endfacet
  facet normal 0.707107 -0.707107 0
    outer loop
      vertex 43.8618 39.4326 5
      vertex 43.8618 39.4326 0
      vertex 45.4202 40.991 0
    endloop
  endfacet
  facet normal 0.707107 -0.707107 0
    outer loop
      vertex 45.4202 40.991 5
      vertex 43.8618 39.4326 5
      vertex 45.4202 40.991 0
    endloop
  endfacet
  facet normal 0.731354 -0.681998 0
    outer loop
      vertex 45.4202 40.991 5
      vertex 45.4202 40.991 0
      vertex 46.9233 42.6029 0
    endloop
  endfacet
  facet normal 0.731354 -0.681998 0
    outer loop
      vertex 46.9233 42.6029 5
      vertex 45.4202 40.991 5
      vertex 46.9233 42.6029 0
    endloop
  endfacet
  facet normal 0.75471 -0.656059 0
    outer loop
      vertex 46.9233 42.6029 5
      vertex 46.9233 42.6029 0
      vertex 48.3692 44.2662 0
    endloop
  endfacet
  facet normal 0.75471 -0.656059 0
    outer loop
      vertex 48.3692 44.2662 5
      vertex 46.9233 42.6029 5
      vertex 48.3692 44.2662 0
    endloop
  endfacet
  facet normal 0.777146 -0.62932 0
    outer loop
      vertex 48.3692 44.2662 5
      vertex 48.3692 44.2662 0
      vertex 49.7562 45.979 0
    endloop
  endfacet
  facet normal 0.777146 -0.62932 0
    outer loop
      vertex 49.7562 45.979 5
      vertex 48.3692 44.2662 5
      vertex 49.7562 45.979 0
    endloop
  endfacet
  facet normal 0.798635 -0.601815 0
    outer loop
      vertex 49.7562 45.979 5
      vertex 49.7562 45.979 0
      vertex 51.0825 47.7392 0
    endloop
  endfacet
  facet normal 0.798635 -0.601815 0
    outer loop
      vertex 51.0825 47.7392 5
      vertex 49.7562 45.979 5
      vertex 51.0825 47.7392 0
    endloop
  endfacet
  facet normal 0.819152 -0.573576 0
    outer loop
      vertex 51.0825 47.7392 5
      vertex 51.0825 47.7392 0
      vertex 52.3467 49.5445 0
    endloop
  endfacet
  facet normal 0.819152 -0.573576 0
    outer loop
      vertex 52.3467 49.5445 5
      vertex 51.0825 47.7392 5
      vertex 52.3467 49.5445 0
    endloop
  endfacet
  facet normal 0.838671 -0.544639 0
    outer loop
      vertex 52.3467 49.5445 5
      vertex 52.3467 49.5445 0
      vertex 53.547 51.3929 0
    endloop
  endfacet
  facet normal 0.838671 -0.544639 0
    outer loop
      vertex 53.547 51.3929 5
      vertex 52.3467 49.5445 5
      vertex 53.547 51.3929 0
    endloop
  endfacet
  facet normal 0.857167 -0.515038 0
    outer loop
      vertex 53.547 51.3929 5
      vertex 53.547 51.3929 0
      vertex 54.6821 53.2821 0
    endloop
  endfacet
  facet normal 0.857167 -0.515038 0
    outer loop
      vertex 54.6821 53.2821 5
      vertex 53.547 51.3929 5
      vertex 54.6821 53.2821 0
    endloop
  endfacet
  facet normal 0.87462 -0.48481 0
    outer loop
      vertex 54.6821 53.2821 5
      vertex 54.6821 53.2821 0
      vertex 55.7506 55.2097 0
    endloop
  endfacet
  facet normal 0.87462 -0.48481 0
    outer loop
      vertex 55.7506 55.2097 5
      vertex 54.6821 53.2821 5
      vertex 55.7506 55.2097 0
    endloop
  endfacet
  facet normal 0.891007 -0.453991 0
    outer loop
      vertex 55.7506 55.2097 5
      vertex 55.7506 55.2097 0
      vertex 56.7512 57.1734 0
    endloop
  endfacet
  facet normal 0.891007 -0.453991 0
    outer loop
      vertex 56.7512 57.1734 5
      vertex 55.7506 55.2097 5
      vertex 56.7512 57.1734 0
    endloop
  endfacet
  facet normal 0.906308 -0.422619 0
    outer loop
      vertex 56.7512 57.1734 5
      vertex 56.7512 57.1734 0
      vertex 57.5572 58.9019 0
    endloop
  endfacet
  facet normal 0.906308 -0.422619 0
    outer loop
      vertex 57.6826 59.1709 5
      vertex 56.7512 57.1734 5
      vertex 57.5572 58.9019 5
    endloop
  endfacet
  facet normal 0.906308 -0.422619 0
    outer loop
      vertex 57.5572 58.9019 5
      vertex 56.7512 57.1734 5
      vertex 57.5572 58.9019 0
    endloop
  endfacet
  facet normal -0.374607 -0.927184 0
    outer loop
      vertex 57.5572 58.9019 5
      vertex 57.5572 58.9019 0
      vertex 57.6073 58.8816 0
    endloop
  endfacet
  facet normal -0.374607 -0.927184 0
    outer loop
      vertex 57.6073 58.8816 5
      vertex 57.5572 58.9019 5
      vertex 57.6073 58.8816 0
    endloop
  endfacet
  facet normal 0.927184 -0.374607 0
    outer loop
      vertex 57.6073 58.8816 5
      vertex 57.6073 58.8816 0
      vertex 59.4803 63.5176 0
    endloop
  endfacet
  facet normal 0.927184 -0.374607 0
    outer loop
      vertex 59.4803 63.5176 5
      vertex 57.6073 58.8816 5
      vertex 59.4803 63.5176 0
    endloop
  endfacet
  facet normal 0.374607 0.927184 0
    outer loop
      vertex 9.89109 83.5529 0
      vertex 9.89109 83.5529 5
      vertex 59.4803 63.5176 0
    endloop
  endfacet
  facet normal 0.374607 0.927184 0
    outer loop
      vertex 59.4803 63.5176 0
      vertex 9.89109 83.5529 5
      vertex 59.4803 63.5176 5
    endloop
  endfacet
  facet normal 0.978148 -0.207912 0
    outer loop
      vertex 9.94522 83.8075 5
      vertex 9.51056 81.7626 5
      vertex 9.89109 83.5529 5
    endloop
  endfacet
  facet normal 0.978148 -0.207912 0
    outer loop
      vertex 9.89109 83.5529 0
      vertex 9.94522 83.8075 0
      vertex 9.89109 83.5529 5
    endloop
  endfacet
  facet normal 0.978148 -0.207912 0
    outer loop
      vertex 9.94522 83.8075 0
      vertex 9.94522 83.8075 5
      vertex 9.89109 83.5529 5
    endloop
  endfacet
  facet normal 1 -6.12323e-17 0
    outer loop
      vertex 9.94522 83.8075 5
      vertex 9.94522 83.8075 0
      vertex 9.94522 85.8981 0
    endloop
  endfacet
  facet normal 1 -6.12323e-17 0
    outer loop
      vertex 9.94522 85.8981 5
      vertex 9.94522 83.8075 5
      vertex 9.94522 85.8981 0
    endloop
  endfacet
  facet normal 0.978148 0.207912 0
    outer loop
      vertex 9.94522 85.8981 0
      vertex 9.51056 87.943 0
      vertex 9.51056 87.943 5
    endloop
  endfacet
  facet normal 0.978148 0.207912 0
    outer loop
      vertex 9.94522 85.8981 5
      vertex 9.94522 85.8981 0
      vertex 9.51056 87.943 5
    endloop
  endfacet
  facet normal 0.913545 0.406737 0
    outer loop
      vertex 9.51056 87.943 0
      vertex 8.66025 89.8528 0
      vertex 8.66025 89.8528 5
    endloop
  endfacet
  facet normal 0.913545 0.406737 0
    outer loop
      vertex 9.51056 87.943 5
      vertex 9.51056 87.943 0
      vertex 8.66025 89.8528 5
    endloop
  endfacet
  facet normal 0.809017 0.587785 0
    outer loop
      vertex 8.66025 89.8528 0
      vertex 7.43145 91.5441 0
      vertex 7.43145 91.5441 5
    endloop
  endfacet
  facet normal 0.809017 0.587785 0
    outer loop
      vertex 8.66025 89.8528 5
      vertex 8.66025 89.8528 0
      vertex 7.43145 91.5441 5
    endloop
  endfacet
  facet normal 0.669131 0.743145 0
    outer loop
      vertex 5.87785 92.943 0
      vertex 5.87785 92.943 5
      vertex 7.43145 91.5441 0
    endloop
  endfacet
  facet normal 0.669131 0.743145 0
    outer loop
      vertex 7.43145 91.5441 0
      vertex 5.87785 92.943 5
      vertex 7.43145 91.5441 5
    endloop
  endfacet
  facet normal 0.5 0.866025 0
    outer loop
      vertex 5 93.4498 0
      vertex 5 93.4498 5
      vertex 5.87785 92.943 0
    endloop
  endfacet
  facet normal 0.5 0.866025 0
    outer loop
      vertex 5.87785 92.943 0
      vertex 5 93.4498 5
      vertex 5.87785 92.943 5
    endloop
  endfacet
  facet normal 1 0 0
    outer loop
      vertex 5 93.4498 5
      vertex 5 93.4498 0
      vertex 5 140 0
    endloop
  endfacet
  facet normal 1 0 0
    outer loop
      vertex 5 140 5
      vertex 5 93.4498 5
      vertex 5 140 0
    endloop
  endfacet
  facet normal 0 1 0
    outer loop
      vertex -5 140 0
      vertex -5 140 5
      vertex 5 140 0
    endloop
  endfacet
  facet normal 0 1 0
    outer loop
      vertex 5 140 0
      vertex -5 140 5
      vertex 5 140 5
    endloop
  endfacet
  facet normal -1 0 0
    outer loop
      vertex -5 93.4498 0
      vertex -5 93.4498 5
      vertex -5 140 0
    endloop
  endfacet
  facet normal -1 0 0
    outer loop
      vertex -5 140 0
      vertex -5 93.4498 5
      vertex -5 140 5
    endloop
  endfacet
  facet normal -0.5 0.866025 0
    outer loop
      vertex -5.87785 92.943 0
      vertex -5.87785 92.943 5
      vertex -5 93.4498 0
    endloop
  endfacet
  facet normal -0.5 0.866025 0
    outer loop
      vertex -5 93.4498 0
      vertex -5.87785 92.943 5
      vertex -5 93.4498 5
    endloop
  endfacet
  facet normal -0.669131 0.743145 0
    outer loop
      vertex -7.43145 91.5441 0
      vertex -7.43145 91.5441 5
      vertex -5.87785 92.943 0
    endloop
  endfacet
  facet normal -0.669131 0.743145 0
    outer loop
      vertex -5.87785 92.943 0
      vertex -7.43145 91.5441 5
      vertex -5.87785 92.943 5
    endloop
  endfacet
  facet normal -0.809017 0.587785 0
    outer loop
      vertex -8.66025 89.8528 0
      vertex -8.66025 89.8528 5
      vertex -7.43145 91.5441 0
    endloop
  endfacet
  facet normal -0.809017 0.587785 0
    outer loop
      vertex -7.43145 91.5441 0
      vertex -8.66025 89.8528 5
      vertex -7.43145 91.5441 5
    endloop
  endfacet
  facet normal -0.913545 0.406737 0
    outer loop
      vertex -9.51056 87.943 0
      vertex -9.51056 87.943 5
      vertex -8.66025 89.8528 0
    endloop
  endfacet
  facet normal -0.913545 0.406737 0
    outer loop
      vertex -8.66025 89.8528 0
      vertex -9.51056 87.943 5
      vertex -8.66025 89.8528 5
    endloop
  endfacet
  facet normal -0.978148 0.207912 0
    outer loop
      vertex -9.94522 85.8981 0
      vertex -9.94522 85.8981 5
      vertex -9.51056 87.943 0
    endloop
  endfacet
  facet normal -0.978148 0.207912 0
    outer loop
      vertex -9.51056 87.943 0
      vertex -9.94522 85.8981 5
      vertex -9.51056 87.943 5
    endloop
  endfacet
  facet normal -1 6.12323e-17 0
    outer loop
      vertex -9.94522 83.8075 0
      vertex -9.94522 83.8075 5
      vertex -9.94522 85.8981 0
    endloop
  endfacet
  facet normal -1 6.12323e-17 0
    outer loop
      vertex -9.94522 85.8981 0
      vertex -9.94522 83.8075 5
      vertex -9.94522 85.8981 5
    endloop
  endfacet
  facet normal -0.978148 -0.207912 0
    outer loop
      vertex -9.94522 83.8075 0
      vertex -9.89109 83.5529 0
      vertex -9.94522 83.8075 5
    endloop
  endfacet
  facet normal -0.978148 -0.207912 0
    outer loop
      vertex -9.94522 83.8075 5
      vertex -9.89109 83.5529 0
      vertex -9.89109 83.5529 5
    endloop
  endfacet
  facet normal -0.978148 -0.207912 0
    outer loop
      vertex -9.94522 83.8075 5
      vertex -9.89109 83.5529 5
      vertex -9.51056 81.7626 5
    endloop
  endfacet
  facet normal 1 -6.12323e-17 0
    outer loop
      vertex -3.97809 85.2709 0
      vertex -3.97809 85.2709 5
      vertex -3.97809 84.4347 5
    endloop
  endfacet
  facet normal 1 -6.12323e-17 0
    outer loop
      vertex -3.97809 84.4347 0
      vertex -3.97809 85.2709 0
      vertex -3.97809 84.4347 5
    endloop
  endfacet
  facet normal 0.978147 -0.207912 0
    outer loop
      vertex -3.80423 86.0889 0
      vertex -3.80423 86.0889 5
      vertex -3.97809 85.2709 5
    endloop
  endfacet
  facet normal 0.978147 -0.207912 0
    outer loop
      vertex -3.97809 85.2709 0
      vertex -3.80423 86.0889 0
      vertex -3.97809 85.2709 5
    endloop
  endfacet
  facet normal 0.913546 -0.406736 0
    outer loop
      vertex -3.4641 86.8528 0
      vertex -3.4641 86.8528 5
      vertex -3.80423 86.0889 5
    endloop
  endfacet
  facet normal 0.913546 -0.406736 0
    outer loop
      vertex -3.80423 86.0889 0
      vertex -3.4641 86.8528 0
      vertex -3.80423 86.0889 5
    endloop
  endfacet
  facet normal 0.809016 -0.587786 0
    outer loop
      vertex -2.97258 87.5293 0
      vertex -2.97258 87.5293 5
      vertex -3.4641 86.8528 5
    endloop
  endfacet
  facet normal 0.809016 -0.587786 0
    outer loop
      vertex -3.4641 86.8528 0
      vertex -2.97258 87.5293 0
      vertex -3.4641 86.8528 5
    endloop
  endfacet
  facet normal 0.669131 -0.743144 0
    outer loop
      vertex -2.35114 88.0889 0
      vertex -2.35114 88.0889 5
      vertex -2.97258 87.5293 5
    endloop
  endfacet
  facet normal 0.669131 -0.743144 0
    outer loop
      vertex -2.97258 87.5293 0
      vertex -2.35114 88.0889 0
      vertex -2.97258 87.5293 5
    endloop
  endfacet
  facet normal 0.5 -0.866025 0
    outer loop
      vertex -1.62695 88.507 0
      vertex -1.62695 88.507 5
      vertex -2.35114 88.0889 5
    endloop
  endfacet
  facet normal 0.5 -0.866025 0
    outer loop
      vertex -2.35114 88.0889 0
      vertex -1.62695 88.507 0
      vertex -2.35114 88.0889 5
    endloop
  endfacet
  facet normal 0.309016 -0.951057 0
    outer loop
      vertex -0.831647 88.7654 0
      vertex -0.831647 88.7654 5
      vertex -1.62695 88.507 5
    endloop
  endfacet
  facet normal 0.309016 -0.951057 0
    outer loop
      vertex -1.62695 88.507 0
      vertex -0.831647 88.7654 0
      vertex -1.62695 88.507 5
    endloop
  endfacet
  facet normal 0.104529 -0.994522 0
    outer loop
      vertex 2.44929e-16 88.8528 0
      vertex 2.44929e-16 88.8528 5
      vertex -0.831647 88.7654 5
    endloop
  endfacet
  facet normal 0.104529 -0.994522 0
    outer loop
      vertex -0.831647 88.7654 0
      vertex 2.44929e-16 88.8528 0
      vertex -0.831647 88.7654 5
    endloop
  endfacet
  facet normal -0.104529 -0.994522 0
    outer loop
      vertex 0.831647 88.7654 0
      vertex 0.831647 88.7654 5
      vertex 2.44929e-16 88.8528 5
    endloop
  endfacet
  facet normal -0.104529 -0.994522 0
    outer loop
      vertex 2.44929e-16 88.8528 0
      vertex 0.831647 88.7654 0
      vertex 2.44929e-16 88.8528 5
    endloop
  endfacet
  facet normal -0.309016 -0.951057 0
    outer loop
      vertex 1.62695 88.507 0
      vertex 1.62695 88.507 5
      vertex 0.831647 88.7654 5
    endloop
  endfacet
  facet normal -0.309016 -0.951057 0
    outer loop
      vertex 0.831647 88.7654 0
      vertex 1.62695 88.507 0
      vertex 0.831647 88.7654 5
    endloop
  endfacet
  facet normal -0.5 -0.866025 0
    outer loop
      vertex 2.35114 88.0889 0
      vertex 2.35114 88.0889 5
      vertex 1.62695 88.507 5
    endloop
  endfacet
  facet normal -0.5 -0.866025 0
    outer loop
      vertex 1.62695 88.507 0
      vertex 2.35114 88.0889 0
      vertex 1.62695 88.507 5
    endloop
  endfacet
  facet normal -0.669131 -0.743144 0
    outer loop
      vertex 2.97258 87.5293 0
      vertex 2.97258 87.5293 5
      vertex 2.35114 88.0889 5
    endloop
  endfacet
  facet normal -0.669131 -0.743144 0
    outer loop
      vertex 2.35114 88.0889 0
      vertex 2.97258 87.5293 0
      vertex 2.35114 88.0889 5
    endloop
  endfacet
  facet normal -0.809016 -0.587786 0
    outer loop
      vertex 3.4641 86.8528 5
      vertex 2.97258 87.5293 5
      vertex 3.4641 86.8528 0
    endloop
  endfacet
  facet normal -0.809016 -0.587786 0
    outer loop
      vertex 3.4641 86.8528 0
      vertex 2.97258 87.5293 5
      vertex 2.97258 87.5293 0
    endloop
  endfacet
  facet normal -0.913546 -0.406736 0
    outer loop
      vertex 3.80423 86.0889 5
      vertex 3.4641 86.8528 5
      vertex 3.80423 86.0889 0
    endloop
  endfacet
  facet normal -0.913546 -0.406736 0
    outer loop
      vertex 3.80423 86.0889 0
      vertex 3.4641 86.8528 5
      vertex 3.4641 86.8528 0
    endloop
  endfacet
  facet normal -0.978147 -0.207912 0
    outer loop
      vertex 3.97809 85.2709 5
      vertex 3.80423 86.0889 5
      vertex 3.97809 85.2709 0
    endloop
  endfacet
  facet normal -0.978147 -0.207912 0
    outer loop
      vertex 3.97809 85.2709 0
      vertex 3.80423 86.0889 5
      vertex 3.80423 86.0889 0
    endloop
  endfacet
  facet normal -1 6.12323e-17 0
    outer loop
      vertex 3.97809 85.2709 5
      vertex 3.97809 85.2709 0
      vertex 3.97809 84.4347 5
    endloop
  endfacet
  facet normal -1 6.12323e-17 0
    outer loop
      vertex 3.97809 84.4347 5
      vertex 3.97809 85.2709 0
      vertex 3.97809 84.4347 0
    endloop
  endfacet
  facet normal -0.978147 0.207912 0
    outer loop
      vertex 3.97809 84.4347 5
      vertex 3.97809 84.4347 0
      vertex 3.80423 83.6167 5
    endloop
  endfacet
  facet normal -0.978147 0.207912 0
    outer loop
      vertex 3.80423 83.6167 5
      vertex 3.97809 84.4347 0
      vertex 3.80423 83.6167 0
    endloop
  endfacet
  facet normal -0.913546 0.406736 0
    outer loop
      vertex 3.80423 83.6167 5
      vertex 3.80423 83.6167 0
      vertex 3.4641 82.8528 5
    endloop
  endfacet
  facet normal -0.913546 0.406736 0
    outer loop
      vertex 3.4641 82.8528 5
      vertex 3.80423 83.6167 0
      vertex 3.4641 82.8528 0
    endloop
  endfacet
  facet normal -0.809016 0.587786 0
    outer loop
      vertex 3.4641 82.8528 5
      vertex 3.4641 82.8528 0
      vertex 2.97258 82.1763 5
    endloop
  endfacet
  facet normal -0.809016 0.587786 0
    outer loop
      vertex 2.97258 82.1763 5
      vertex 3.4641 82.8528 0
      vertex 2.97258 82.1763 0
    endloop
  endfacet
  facet normal -0.669131 0.743144 0
    outer loop
      vertex 2.97258 82.1763 5
      vertex 2.97258 82.1763 0
      vertex 2.35114 81.6167 5
    endloop
  endfacet
  facet normal -0.669131 0.743144 0
    outer loop
      vertex 2.35114 81.6167 5
      vertex 2.97258 82.1763 0
      vertex 2.35114 81.6167 0
    endloop
  endfacet
  facet normal -0.5 0.866025 0
    outer loop
      vertex 2.35114 81.6167 5
      vertex 2.35114 81.6167 0
      vertex 1.62695 81.1986 5
    endloop
  endfacet
  facet normal -0.5 0.866025 0
    outer loop
      vertex 1.62695 81.1986 5
      vertex 2.35114 81.6167 0
      vertex 1.62695 81.1986 0
    endloop
  endfacet
  facet normal -0.309016 0.951057 0
    outer loop
      vertex 1.62695 81.1986 5
      vertex 1.62695 81.1986 0
      vertex 0.831647 80.9402 5
    endloop
  endfacet
  facet normal -0.309016 0.951057 0
    outer loop
      vertex 0.831647 80.9402 5
      vertex 1.62695 81.1986 0
      vertex 0.831647 80.9402 0
    endloop
  endfacet
  facet normal -0.104529 0.994522 0
    outer loop
      vertex 0.831647 80.9402 5
      vertex 0.831647 80.9402 0
      vertex -2.44929e-16 80.8528 5
    endloop
  endfacet
  facet normal -0.104529 0.994522 0
    outer loop
      vertex -2.44929e-16 80.8528 5
      vertex 0.831647 80.9402 0
      vertex -2.44929e-16 80.8528 0
    endloop
  endfacet
  facet normal 0.104529 0.994522 0
    outer loop
      vertex -2.44929e-16 80.8528 5
      vertex -2.44929e-16 80.8528 0
      vertex -0.831647 80.9402 5
    endloop
  endfacet
  facet normal 0.104529 0.994522 0
    outer loop
      vertex -0.831647 80.9402 5
      vertex -2.44929e-16 80.8528 0
      vertex -0.831647 80.9402 0
    endloop
  endfacet
  facet normal 0.309016 0.951057 0
    outer loop
      vertex -0.831647 80.9402 5
      vertex -0.831647 80.9402 0
      vertex -1.62695 81.1986 5
    endloop
  endfacet
  facet normal 0.309016 0.951057 0
    outer loop
      vertex -1.62695 81.1986 5
      vertex -0.831647 80.9402 0
      vertex -1.62695 81.1986 0
    endloop
  endfacet
  facet normal 0.5 0.866025 0
    outer loop
      vertex -1.62695 81.1986 5
      vertex -1.62695 81.1986 0
      vertex -2.35114 81.6167 5
    endloop
  endfacet
  facet normal 0.5 0.866025 0
    outer loop
      vertex -2.35114 81.6167 5
      vertex -1.62695 81.1986 0
      vertex -2.35114 81.6167 0
    endloop
  endfacet
  facet normal 0.669131 0.743144 0
    outer loop
      vertex -2.35114 81.6167 5
      vertex -2.35114 81.6167 0
      vertex -2.97258 82.1763 5
    endloop
  endfacet
  facet normal 0.669131 0.743144 0
    outer loop
      vertex -2.97258 82.1763 5
      vertex -2.35114 81.6167 0
      vertex -2.97258 82.1763 0
    endloop
  endfacet
  facet normal 0.809016 0.587786 0
    outer loop
      vertex -3.4641 82.8528 5
      vertex -2.97258 82.1763 5
      vertex -2.97258 82.1763 0
    endloop
  endfacet
  facet normal 0.809016 0.587786 0
    outer loop
      vertex -3.4641 82.8528 0
      vertex -3.4641 82.8528 5
      vertex -2.97258 82.1763 0
    endloop
  endfacet
  facet normal 0.913546 0.406736 0
    outer loop
      vertex -3.80423 83.6167 5
      vertex -3.4641 82.8528 5
      vertex -3.4641 82.8528 0
    endloop
  endfacet
  facet normal 0.913546 0.406736 0
    outer loop
      vertex -3.80423 83.6167 0
      vertex -3.80423 83.6167 5
      vertex -3.4641 82.8528 0
    endloop
  endfacet
  facet normal 0.978147 0.207912 0
    outer loop
      vertex -3.97809 84.4347 5
      vertex -3.80423 83.6167 5
      vertex -3.80423 83.6167 0
    endloop
  endfacet
  facet normal 0.978147 0.207912 0
    outer loop
      vertex -3.97809 84.4347 0
      vertex -3.97809 84.4347 5
      vertex -3.80423 83.6167 0
    endloop
  endfacet
  facet normal 1 0 0
    outer loop
      vertex -1.80194 104.868 0
      vertex -1.80194 104.868 5
      vertex -1.80194 103.132 5
    endloop
  endfacet
  facet normal 1 0 0
    outer loop
      vertex -1.80194 103.132 0
      vertex -1.80194 104.868 0
      vertex -1.80194 103.132 5
    endloop
  endfacet
  facet normal 0.62349 -0.781831 0
    outer loop
      vertex -0.445042 105.95 0
      vertex -0.445042 105.95 5
      vertex -1.80194 104.868 5
    endloop
  endfacet
  facet normal 0.62349 -0.781831 0
    outer loop
      vertex -1.80194 104.868 0
      vertex -0.445042 105.95 0
      vertex -1.80194 104.868 5
    endloop
  endfacet
  facet normal -0.222521 -0.974928 0
    outer loop
      vertex 1.24698 105.564 0
      vertex 1.24698 105.564 5
      vertex -0.445042 105.95 5
    endloop
  endfacet
  facet normal -0.222521 -0.974928 0
    outer loop
      vertex -0.445042 105.95 0
      vertex 1.24698 105.564 0
      vertex -0.445042 105.95 5
    endloop
  endfacet
  facet normal -0.900969 -0.433884 0
    outer loop
      vertex 2 104 5
      vertex 1.24698 105.564 5
      vertex 2 104 0
    endloop
  endfacet
  facet normal -0.900969 -0.433884 0
    outer loop
      vertex 2 104 0
      vertex 1.24698 105.564 5
      vertex 1.24698 105.564 0
    endloop
  endfacet
  facet normal -0.900969 0.433884 0
    outer loop
      vertex 2 104 5
      vertex 2 104 0
      vertex 1.24698 102.436 5
    endloop
  endfacet
  facet normal -0.900969 0.433884 0
    outer loop
      vertex 1.24698 102.436 5
      vertex 2 104 0
      vertex 1.24698 102.436 0
    endloop
  endfacet
  facet normal -0.222521 0.974928 0
    outer loop
      vertex 1.24698 102.436 5
      vertex 1.24698 102.436 0
      vertex -0.445042 102.05 5
    endloop
  endfacet
  facet normal -0.222521 0.974928 0
    outer loop
      vertex -0.445042 102.05 5
      vertex 1.24698 102.436 0
      vertex -0.445042 102.05 0
    endloop
  endfacet
  facet normal 0.62349 0.781831 0
    outer loop
      vertex -0.445042 102.05 5
      vertex -0.445042 102.05 0
      vertex -1.80194 103.132 5
    endloop
  endfacet
  facet normal 0.62349 0.781831 0
    outer loop
      vertex -1.80194 103.132 5
      vertex -0.445042 102.05 0
      vertex -1.80194 103.132 0
    endloop
  endfacet
  facet normal 1 0 0
    outer loop
      vertex -1.80194 134.868 0
      vertex -1.80194 134.868 5
      vertex -1.80194 133.132 5
    endloop
  endfacet
  facet normal 1 0 0
    outer loop
      vertex -1.80194 133.132 0
      vertex -1.80194 134.868 0
      vertex -1.80194 133.132 5
    endloop
  endfacet
  facet normal 0.62349 -0.781831 0
    outer loop
      vertex -0.445042 135.95 0
      vertex -0.445042 135.95 5
      vertex -1.80194 134.868 5
    endloop
  endfacet
  facet normal 0.62349 -0.781831 0
    outer loop
      vertex -1.80194 134.868 0
      vertex -0.445042 135.95 0
      vertex -1.80194 134.868 5
    endloop
  endfacet
  facet normal -0.222521 -0.974928 0
    outer loop
      vertex 1.24698 135.564 0
      vertex 1.24698 135.564 5
      vertex -0.445042 135.95 5
    endloop
  endfacet
  facet normal -0.222521 -0.974928 0
    outer loop
      vertex -0.445042 135.95 0
      vertex 1.24698 135.564 0
      vertex -0.445042 135.95 5
    endloop
  endfacet
  facet normal -0.900969 -0.433884 0
    outer loop
      vertex 2 134 5
      vertex 1.24698 135.564 5
      vertex 2 134 0
    endloop
  endfacet
  facet normal -0.900969 -0.433884 0
    outer loop
      vertex 2 134 0
      vertex 1.24698 135.564 5
      vertex 1.24698 135.564 0
    endloop
  endfacet
  facet normal -0.900969 0.433884 0
    outer loop
      vertex 2 134 5
      vertex 2 134 0
      vertex 1.24698 132.436 5
    endloop
  endfacet
  facet normal -0.900969 0.433884 0
    outer loop
      vertex 1.24698 132.436 5
      vertex 2 134 0
      vertex 1.24698 132.436 0
    endloop
  endfacet
  facet normal -0.222521 0.974928 0
    outer loop
      vertex 1.24698 132.436 5
      vertex 1.24698 132.436 0
      vertex -0.445042 132.05 5
    endloop
  endfacet
  facet normal -0.222521 0.974928 0
    outer loop
      vertex -0.445042 132.05 5
      vertex 1.24698 132.436 0
      vertex -0.445042 132.05 0
    endloop
  endfacet
  facet normal 0.62349 0.781831 0
    outer loop
      vertex -0.445042 132.05 5
      vertex -0.445042 132.05 0
      vertex -1.80194 133.132 5
    endloop
  endfacet
  facet normal 0.62349 0.781831 0
    outer loop
      vertex -1.80194 133.132 5
      vertex -0.445042 132.05 0
      vertex -1.80194 133.132 0
    endloop
  endfacet
  facet normal 0 0 1
    outer loop
      vertex -52.7183 63.5532 5
      vertex -58.5438 61.1996 5
      vertex -57.6826 59.1709 5
    endloop
  endfacet
  facet normal 0 0 1
    outer loop
      vertex -55.7506 55.2097 5
      vertex -52.7183 63.5532 5
      vertex -56.7512 57.1734 5
    endloop
  endfacet
  facet normal 0 0 1
    outer loop
      vertex -56.7512 57.1734 5
      vertex -52.7183 63.5532 5
      vertex -57.6826 59.1709 5
    endloop
  endfacet
  facet normal 0 0 1
    outer loop
      vertex -54.6821 53.2821 5
      vertex -52.7183 63.5532 5
      vertex -55.7506 55.2097 5
    endloop
  endfacet
  facet normal 0 0 1
    outer loop
      vertex -53.547 51.3929 5
      vertex -52.7183 63.5532 5
      vertex -54.6821 53.2821 5
    endloop
  endfacet
  facet normal 0 0 1
    outer loop
      vertex -52.3467 49.5445 5
      vertex -52.7183 63.5532 5
      vertex -53.547 51.3929 5
    endloop
  endfacet
  facet normal 0 0 1
    outer loop
      vertex -51.0825 47.7392 5
      vertex -52.7183 63.5532 5
      vertex -52.3467 49.5445 5
    endloop
  endfacet
  facet normal 0 0 1
    outer loop
      vertex -49.7562 45.979 5
      vertex -52.7183 63.5532 5
      vertex -51.0825 47.7392 5
    endloop
  endfacet
  facet normal 0 0 1
    outer loop
      vertex -48.3692 44.2662 5
      vertex -52.7183 63.5532 5
      vertex -49.7562 45.979 5
    endloop
  endfacet
  facet normal 0 0 1
    outer loop
      vertex -46.9233 42.6029 5
      vertex -52.7183 63.5532 5
      vertex -48.3692 44.2662 5
    endloop
  endfacet
  facet normal 0 0 1
    outer loop
      vertex -46.7587 42.4264 5
      vertex -52.7183 63.5532 5
      vertex -46.9233 42.6029 5
    endloop
  endfacet
  facet normal 0 0 1
    outer loop
      vertex -37.8475 42.4264 5
      vertex -38.0458 42.5987 5
      vertex -46.7587 42.4264 5
    endloop
  endfacet
  facet normal 0 0 1
    outer loop
      vertex -38.0458 42.5987 5
      vertex -39.4972 43.9522 5
      vertex -46.7587 42.4264 5
    endloop
  endfacet
  facet normal 0 0 1
    outer loop
      vertex -39.4972 43.9522 5
      vertex -40.9006 45.3556 5
      vertex -46.7587 42.4264 5
    endloop
  endfacet
  facet normal 0 0 1
    outer loop
      vertex -40.9006 45.3556 5
      vertex -42.2541 46.8071 5
      vertex -46.7587 42.4264 5
    endloop
  endfacet
  facet normal 0 0 1
    outer loop
      vertex -42.2541 46.8071 5
      vertex -43.5561 48.3049 5
      vertex -46.7587 42.4264 5
    endloop
  endfacet
  facet normal 0 0 1
    outer loop
      vertex -43.5561 48.3049 5
      vertex -44.8051 49.8472 5
      vertex -46.7587 42.4264 5
    endloop
  endfacet
  facet normal 0 0 1
    outer loop
      vertex -44.8051 49.8472 5
      vertex -45.9995 51.4322 5
      vertex -46.7587 42.4264 5
    endloop
  endfacet
  facet normal 0 0 1
    outer loop
      vertex -45.9995 51.4322 5
      vertex -47.1378 53.0579 5
      vertex -46.7587 42.4264 5
    endloop
  endfacet
  facet normal 0 0 1
    outer loop
      vertex -47.1378 53.0579 5
      vertex -48.2187 54.7224 5
      vertex -46.7587 42.4264 5
    endloop
  endfacet
  facet normal 0 0 1
    outer loop
      vertex -48.2187 54.7224 5
      vertex -49.2409 56.4236 5
      vertex -46.7587 42.4264 5
    endloop
  endfacet
  facet normal 0 0 1
    outer loop
      vertex -49.2409 56.4236 5
      vertex -50.2031 58.1594 5
      vertex -46.7587 42.4264 5
    endloop
  endfacet
  facet normal 0 0 1
    outer loop
      vertex -50.2031 58.1594 5
      vertex -51.1041 59.9277 5
      vertex -46.7587 42.4264 5
    endloop
  endfacet
  facet normal 0 0 1
    outer loop
      vertex -51.1041 59.9277 5
      vertex -51.9428 61.7264 5
      vertex -46.7587 42.4264 5
    endloop
  endfacet
  facet normal 0 0 1
    outer loop
      vertex -51.9428 61.7264 5
      vertex -52.7183 63.5532 5
      vertex -46.7587 42.4264 5
    endloop
  endfacet
  facet normal 0 0 1
    outer loop
      vertex -9.94522 85.8981 5
      vertex -9.94522 83.8075 5
      vertex -9.51056 81.7626 5
    endloop
  endfacet
  facet normal 0 0 1
    outer loop
      vertex -7.43145 78.1615 5
      vertex -9.94522 85.8981 5
      vertex -8.66025 79.8528 5
    endloop
  endfacet
  facet normal 0 0 1
    outer loop
      vertex -8.66025 79.8528 5
      vertex -9.94522 85.8981 5
      vertex -9.51056 81.7626 5
    endloop
  endfacet
  facet normal 0 0 1
    outer loop
      vertex -5.87785 76.7626 5
      vertex -9.94522 85.8981 5
      vertex -7.43145 78.1615 5
    endloop
  endfacet
  facet normal 0 0 1
    outer loop
      vertex -4.06737 75.7174 5
      vertex -9.94522 85.8981 5
      vertex -5.87785 76.7626 5
    endloop
  endfacet
  facet normal 0 0 1
    outer loop
      vertex -2.07912 75.0713 5
      vertex -9.94522 85.8981 5
      vertex -4.06737 75.7174 5
    endloop
  endfacet
  facet normal 0 0 1
    outer loop
      vertex -6.12323e-16 74.8528 5
      vertex -9.94522 85.8981 5
      vertex -2.07912 75.0713 5
    endloop
  endfacet
  facet normal 0 0 1
    outer loop
      vertex 2.07912 75.0713 5
      vertex -9.94522 85.8981 5
      vertex -6.12323e-16 74.8528 5
    endloop
  endfacet
  facet normal 0 0 1
    outer loop
      vertex 4.06737 75.7174 5
      vertex -9.94522 85.8981 5
      vertex 2.07912 75.0713 5
    endloop
  endfacet
  facet normal 0 0 1
    outer loop
      vertex 5.87785 76.7626 5
      vertex -9.94522 85.8981 5
      vertex 4.06737 75.7174 5
    endloop
  endfacet
  facet normal 0 0 1
    outer loop
      vertex -1.62695 81.1986 5
      vertex -9.94522 85.8981 5
      vertex 5.87785 76.7626 5
    endloop
  endfacet
  facet normal 0 0 1
    outer loop
      vertex -2.35114 81.6167 5
      vertex -2.97258 82.1763 5
      vertex -9.94522 85.8981 5
    endloop
  endfacet
  facet normal 0 0 1
    outer loop
      vertex 2.97258 82.1763 5
      vertex 2.35114 81.6167 5
      vertex 8.66025 79.8528 5
    endloop
  endfacet
  facet normal 0 0 1
    outer loop
      vertex 3.80423 86.0889 5
      vertex 3.97809 85.2709 5
      vertex 9.94522 85.8981 5
    endloop
  endfacet
  facet normal 0 0 1
    outer loop
      vertex 5.87785 92.943 5
      vertex -9.94522 85.8981 5
      vertex 7.43145 91.5441 5
    endloop
  endfacet
  facet normal 0 0 1
    outer loop
      vertex 5 93.4498 5
      vertex -9.94522 85.8981 5
      vertex 5.87785 92.943 5
    endloop
  endfacet
  facet normal 0 0 1
    outer loop
      vertex -5 93.4498 5
      vertex -9.94522 85.8981 5
      vertex 5 93.4498 5
    endloop
  endfacet
  facet normal 0 0 1
    outer loop
      vertex -3.97809 85.2709 5
      vertex -3.80423 86.0889 5
      vertex -9.94522 85.8981 5
    endloop
  endfacet
  facet normal 0 0 1
    outer loop
      vertex -1.80194 103.132 5
      vertex -5 93.4498 5
      vertex 5 93.4498 5
    endloop
  endfacet
  facet normal 0 0 1
    outer loop
      vertex -5.87785 92.943 5
      vertex -9.94522 85.8981 5
      vertex -5 93.4498 5
    endloop
  endfacet
  facet normal 0 0 1
    outer loop
      vertex -1.80194 104.868 5
      vertex -0.445042 105.95 5
      vertex 5 140 5
    endloop
  endfacet
  facet normal 0 0 1
    outer loop
      vertex -7.43145 91.5441 5
      vertex -9.94522 85.8981 5
      vertex -5.87785 92.943 5
    endloop
  endfacet
  facet normal 0 0 1
    outer loop
      vertex -8.66025 89.8528 5
      vertex -9.94522 85.8981 5
      vertex -7.43145 91.5441 5
    endloop
  endfacet
  facet normal 0 0 1
    outer loop
      vertex -3.80423 83.6167 5
      vertex -3.97809 84.4347 5
      vertex -9.94522 85.8981 5
    endloop
  endfacet
  facet normal 0 0 1
    outer loop
      vertex 1.62695 81.1986 5
      vertex 0.831647 80.9402 5
      vertex 7.43145 78.1615 5
    endloop
  endfacet
  facet normal 0 0 1
    outer loop
      vertex -3.4641 82.8528 5
      vertex -3.80423 83.6167 5
      vertex -9.94522 85.8981 5
    endloop
  endfacet
  facet normal 0 0 1
    outer loop
      vertex 3.97809 84.4347 5
      vertex 3.80423 83.6167 5
      vertex 9.94522 83.8075 5
    endloop
  endfacet
  facet normal 0 0 1
    outer loop
      vertex -3.4641 86.8528 5
      vertex -2.97258 87.5293 5
      vertex -9.94522 85.8981 5
    endloop
  endfacet
  facet normal 0 0 1
    outer loop
      vertex 3.80423 83.6167 5
      vertex 3.4641 82.8528 5
      vertex 9.51056 81.7626 5
    endloop
  endfacet
  facet normal 0 0 1
    outer loop
      vertex -0.831647 88.7654 5
      vertex 2.44929e-16 88.8528 5
      vertex 7.43145 91.5441 5
    endloop
  endfacet
  facet normal 0 0 1
    outer loop
      vertex 2.97258 87.5293 5
      vertex 3.4641 86.8528 5
      vertex 9.51056 87.943 5
    endloop
  endfacet
  facet normal 0 0 1
    outer loop
      vertex -2.35114 88.0889 5
      vertex -9.94522 85.8981 5
      vertex -2.97258 87.5293 5
    endloop
  endfacet
  facet normal 0 0 1
    outer loop
      vertex -1.62695 88.507 5
      vertex -9.94522 85.8981 5
      vertex -2.35114 88.0889 5
    endloop
  endfacet
  facet normal 0 0 1
    outer loop
      vertex 7.43145 91.5441 5
      vertex -9.94522 85.8981 5
      vertex -1.62695 88.507 5
    endloop
  endfacet
  facet normal 0 0 1
    outer loop
      vertex 2.44929e-16 88.8528 5
      vertex 0.831647 88.7654 5
      vertex 7.43145 91.5441 5
    endloop
  endfacet
  facet normal 0 0 1
    outer loop
      vertex 7.43145 91.5441 5
      vertex -1.62695 88.507 5
      vertex -0.831647 88.7654 5
    endloop
  endfacet
  facet normal 0 0 1
    outer loop
      vertex 7.43145 91.5441 5
      vertex 0.831647 88.7654 5
      vertex 8.66025 89.8528 5
    endloop
  endfacet
  facet normal 0 0 1
    outer loop
      vertex 0.831647 88.7654 5
      vertex 1.62695 88.507 5
      vertex 8.66025 89.8528 5
    endloop
  endfacet
  facet normal 0 0 1
    outer loop
      vertex 8.66025 89.8528 5
      vertex 2.35114 88.0889 5
      vertex 9.51056 87.943 5
    endloop
  endfacet
  facet normal 0 0 1
    outer loop
      vertex 2.35114 88.0889 5
      vertex 2.97258 87.5293 5
      vertex 9.51056 87.943 5
    endloop
  endfacet
  facet normal 0 0 1
    outer loop
      vertex 9.51056 87.943 5
      vertex 3.4641 86.8528 5
      vertex 9.94522 85.8981 5
    endloop
  endfacet
  facet normal 0 0 1
    outer loop
      vertex 3.4641 86.8528 5
      vertex 3.80423 86.0889 5
      vertex 9.94522 85.8981 5
    endloop
  endfacet
  facet normal 0 0 1
    outer loop
      vertex 9.94522 85.8981 5
      vertex 3.97809 85.2709 5
      vertex 9.94522 83.8075 5
    endloop
  endfacet
  facet normal 0 0 1
    outer loop
      vertex -3.80423 86.0889 5
      vertex -3.4641 86.8528 5
      vertex -9.94522 85.8981 5
    endloop
  endfacet
  facet normal 0 0 1
    outer loop
      vertex 3.97809 85.2709 5
      vertex 3.97809 84.4347 5
      vertex 9.94522 83.8075 5
    endloop
  endfacet
  facet normal 0 0 1
    outer loop
      vertex 1.62695 88.507 5
      vertex 2.35114 88.0889 5
      vertex 8.66025 89.8528 5
    endloop
  endfacet
  facet normal 0 0 1
    outer loop
      vertex 9.94522 83.8075 5
      vertex 3.80423 83.6167 5
      vertex 9.51056 81.7626 5
    endloop
  endfacet
  facet normal 0 0 1
    outer loop
      vertex 9.51056 81.7626 5
      vertex 3.4641 82.8528 5
      vertex 8.66025 79.8528 5
    endloop
  endfacet
  facet normal 0 0 1
    outer loop
      vertex 3.4641 82.8528 5
      vertex 2.97258 82.1763 5
      vertex 8.66025 79.8528 5
    endloop
  endfacet
  facet normal 0 0 1
    outer loop
      vertex 8.66025 79.8528 5
      vertex 2.35114 81.6167 5
      vertex 7.43145 78.1615 5
    endloop
  endfacet
  facet normal 0 0 1
    outer loop
      vertex -3.97809 84.4347 5
      vertex -3.97809 85.2709 5
      vertex -9.94522 85.8981 5
    endloop
  endfacet
  facet normal 0 0 1
    outer loop
      vertex 2.35114 81.6167 5
      vertex 1.62695 81.1986 5
      vertex 7.43145 78.1615 5
    endloop
  endfacet
  facet normal 0 0 1
    outer loop
      vertex 7.43145 78.1615 5
      vertex 0.831647 80.9402 5
      vertex 5.87785 76.7626 5
    endloop
  endfacet
  facet normal 0 0 1
    outer loop
      vertex 0.831647 80.9402 5
      vertex -2.44929e-16 80.8528 5
      vertex 5.87785 76.7626 5
    endloop
  endfacet
  facet normal 0 0 1
    outer loop
      vertex -2.44929e-16 80.8528 5
      vertex -0.831647 80.9402 5
      vertex 5.87785 76.7626 5
    endloop
  endfacet
  facet normal 0 0 1
    outer loop
      vertex -0.831647 80.9402 5
      vertex -1.62695 81.1986 5
      vertex 5.87785 76.7626 5
    endloop
  endfacet
  facet normal 0 0 1
    outer loop
      vertex -2.35114 81.6167 5
      vertex -9.94522 85.8981 5
      vertex -1.62695 81.1986 5
    endloop
  endfacet
  facet normal 0 0 1
    outer loop
      vertex -2.97258 82.1763 5
      vertex -3.4641 82.8528 5
      vertex -9.94522 85.8981 5
    endloop
  endfacet
  facet normal 0 0 1
    outer loop
      vertex -0.445042 135.95 5
      vertex 1.24698 135.564 5
      vertex 5 140 5
    endloop
  endfacet
  facet normal 0 0 1
    outer loop
      vertex -0.445042 102.05 5
      vertex -1.80194 103.132 5
      vertex 5 93.4498 5
    endloop
  endfacet
  facet normal 0 0 1
    outer loop
      vertex -1.80194 104.868 5
      vertex -5 93.4498 5
      vertex -1.80194 103.132 5
    endloop
  endfacet
  facet normal 0 0 1
    outer loop
      vertex 2 104 5
      vertex 1.24698 102.436 5
      vertex 5 93.4498 5
    endloop
  endfacet
  facet normal 0 0 1
    outer loop
      vertex 5 140 5
      vertex -5 93.4498 5
      vertex -1.80194 104.868 5
    endloop
  endfacet
  facet normal 0 0 1
    outer loop
      vertex 1.24698 102.436 5
      vertex -0.445042 102.05 5
      vertex 5 93.4498 5
    endloop
  endfacet
  facet normal 0 0 1
    outer loop
      vertex 5 140 5
      vertex -0.445042 105.95 5
      vertex 1.24698 105.564 5
    endloop
  endfacet
  facet normal 0 0 1
    outer loop
      vertex 5 140 5
      vertex 2 104 5
      vertex 5 93.4498 5
    endloop
  endfacet
  facet normal 0 0 1
    outer loop
      vertex 5 140 5
      vertex 1.24698 105.564 5
      vertex 2 104 5
    endloop
  endfacet
  facet normal 0 0 1
    outer loop
      vertex -5 140 5
      vertex -1.80194 133.132 5
      vertex -1.80194 134.868 5
    endloop
  endfacet
  facet normal 0 0 1
    outer loop
      vertex -5 140 5
      vertex -0.445042 135.95 5
      vertex 5 140 5
    endloop
  endfacet
  facet normal 0 0 1
    outer loop
      vertex -5 140 5
      vertex -1.80194 134.868 5
      vertex -0.445042 135.95 5
    endloop
  endfacet
  facet normal 0 0 1
    outer loop
      vertex 1.24698 135.564 5
      vertex 2 134 5
      vertex 5 140 5
    endloop
  endfacet
  facet normal 0 0 1
    outer loop
      vertex -8.66025 89.8528 5
      vertex -9.51056 87.943 5
      vertex -9.94522 85.8981 5
    endloop
  endfacet
  facet normal 0 0 1
    outer loop
      vertex 1.24698 132.436 5
      vertex 5 140 5
      vertex 2 134 5
    endloop
  endfacet
  facet normal 0 0 1
    outer loop
      vertex 1.24698 132.436 5
      vertex -5 93.4498 5
      vertex 5 140 5
    endloop
  endfacet
  facet normal 0 0 1
    outer loop
      vertex -0.445042 132.05 5
      vertex -5 93.4498 5
      vertex 1.24698 132.436 5
    endloop
  endfacet
  facet normal 0 0 1
    outer loop
      vertex -1.80194 133.132 5
      vertex -5 93.4498 5
      vertex -0.445042 132.05 5
    endloop
  endfacet
  facet normal 0 0 1
    outer loop
      vertex -5 140 5
      vertex -5 93.4498 5
      vertex -1.80194 133.132 5
    endloop
  endfacet
  facet normal 0 0 1
    outer loop
      vertex 8.66025 79.8528 5
      vertex 7.98889 78.9288 5
      vertex 51.7246 61.2584 5
    endloop
  endfacet
  facet normal 0 0 1
    outer loop
      vertex 52.7183 63.5532 5
      vertex 8.66025 79.8528 5
      vertex 51.9428 61.7264 5
    endloop
  endfacet
  facet normal 0 0 1
    outer loop
      vertex 51.9428 61.7264 5
      vertex 8.66025 79.8528 5
      vertex 51.7246 61.2584 5
    endloop
  endfacet
  facet normal 0 0 1
    outer loop
      vertex 59.4803 63.5176 5
      vertex 8.66025 79.8528 5
      vertex 52.7183 63.5532 5
    endloop
  endfacet
  facet normal 0 0 1
    outer loop
      vertex 59.4803 63.5176 5
      vertex 52.7183 63.5532 5
      vertex 58.5438 61.1996 5
    endloop
  endfacet
  facet normal 0 0 1
    outer loop
      vertex 57.6073 58.8816 5
      vertex 58.5438 61.1996 5
      vertex 57.6826 59.1709 5
    endloop
  endfacet
  facet normal 0 0 1
    outer loop
      vertex 57.6073 58.8816 5
      vertex 57.6826 59.1709 5
      vertex 57.5572 58.9019 5
    endloop
  endfacet
  facet normal 0 0 1
    outer loop
      vertex 57.6073 58.8816 5
      vertex 59.4803 63.5176 5
      vertex 58.5438 61.1996 5
    endloop
  endfacet
  facet normal 0 0 1
    outer loop
      vertex 9.51056 81.7626 5
      vertex 8.66025 79.8528 5
      vertex 59.4803 63.5176 5
    endloop
  endfacet
  facet normal 0 0 1
    outer loop
      vertex 9.89109 83.5529 5
      vertex 9.51056 81.7626 5
      vertex 59.4803 63.5176 5
    endloop
  endfacet
  facet normal 0 0 1
    outer loop
      vertex 43.5561 48.3049 5
      vertex 42.4264 47.0053 5
      vertex 42.4264 38.0941 5
    endloop
  endfacet
  facet normal 0 0 1
    outer loop
      vertex 45.4202 40.991 5
      vertex 43.5561 48.3049 5
      vertex 43.8618 39.4326 5
    endloop
  endfacet
  facet normal 0 0 1
    outer loop
      vertex 43.8618 39.4326 5
      vertex 43.5561 48.3049 5
      vertex 42.4264 38.0941 5
    endloop
  endfacet
  facet normal 0 0 1
    outer loop
      vertex 46.9233 42.6029 5
      vertex 43.5561 48.3049 5
      vertex 45.4202 40.991 5
    endloop
  endfacet
  facet normal 0 0 1
    outer loop
      vertex 48.3692 44.2662 5
      vertex 43.5561 48.3049 5
      vertex 46.9233 42.6029 5
    endloop
  endfacet
  facet normal 0 0 1
    outer loop
      vertex 49.7562 45.979 5
      vertex 43.5561 48.3049 5
      vertex 48.3692 44.2662 5
    endloop
  endfacet
  facet normal 0 0 1
    outer loop
      vertex 51.0825 47.7392 5
      vertex 43.5561 48.3049 5
      vertex 49.7562 45.979 5
    endloop
  endfacet
  facet normal 0 0 1
    outer loop
      vertex 52.3467 49.5445 5
      vertex 43.5561 48.3049 5
      vertex 51.0825 47.7392 5
    endloop
  endfacet
  facet normal 0 0 1
    outer loop
      vertex 53.547 51.3929 5
      vertex 43.5561 48.3049 5
      vertex 52.3467 49.5445 5
    endloop
  endfacet
  facet normal 0 0 1
    outer loop
      vertex 54.6821 53.2821 5
      vertex 43.5561 48.3049 5
      vertex 53.547 51.3929 5
    endloop
  endfacet
  facet normal 0 0 1
    outer loop
      vertex 55.7506 55.2097 5
      vertex 43.5561 48.3049 5
      vertex 54.6821 53.2821 5
    endloop
  endfacet
  facet normal 0 0 1
    outer loop
      vertex 56.7512 57.1734 5
      vertex 43.5561 48.3049 5
      vertex 55.7506 55.2097 5
    endloop
  endfacet
  facet normal 0 0 1
    outer loop
      vertex 57.6826 59.1709 5
      vertex 43.5561 48.3049 5
      vertex 56.7512 57.1734 5
    endloop
  endfacet
  facet normal 0 0 1
    outer loop
      vertex 58.5438 61.1996 5
      vertex 43.5561 48.3049 5
      vertex 57.6826 59.1709 5
    endloop
  endfacet
  facet normal 0 0 1
    outer loop
      vertex 44.8051 49.8472 5
      vertex 43.5561 48.3049 5
      vertex 58.5438 61.1996 5
    endloop
  endfacet
  facet normal 0 0 1
    outer loop
      vertex 52.7183 63.5532 5
      vertex 51.9428 61.7264 5
      vertex 58.5438 61.1996 5
    endloop
  endfacet
  facet normal 0 0 1
    outer loop
      vertex 51.9428 61.7264 5
      vertex 51.1041 59.9277 5
      vertex 58.5438 61.1996 5
    endloop
  endfacet
  facet normal 0 0 1
    outer loop
      vertex 51.1041 59.9277 5
      vertex 50.2031 58.1594 5
      vertex 58.5438 61.1996 5
    endloop
  endfacet
  facet normal 0 0 1
    outer loop
      vertex 50.2031 58.1594 5
      vertex 49.2409 56.4236 5
      vertex 58.5438 61.1996 5
    endloop
  endfacet
  facet normal 0 0 1
    outer loop
      vertex 49.2409 56.4236 5
      vertex 48.2187 54.7224 5
      vertex 58.5438 61.1996 5
    endloop
  endfacet
  facet normal 0 0 1
    outer loop
      vertex 48.2187 54.7224 5
      vertex 47.1378 53.0579 5
      vertex 58.5438 61.1996 5
    endloop
  endfacet
  facet normal 0 0 1
    outer loop
      vertex 47.1378 53.0579 5
      vertex 45.9995 51.4322 5
      vertex 58.5438 61.1996 5
    endloop
  endfacet
  facet normal 0 0 1
    outer loop
      vertex 45.9995 51.4322 5
      vertex 44.8051 49.8472 5
      vertex 58.5438 61.1996 5
    endloop
  endfacet
endsolid OpenSCAD_Model
